<svg width="56" height="12" viewBox="0 0 56 12" fill="none" xmlns="http://www.w3.org/2000/svg">
<path d="M2.73384 7.17398C2.6949 7.87866 2.86256 8.57938 3.21623 9.19011C3.42222 9.44386 3.68892 9.6415 3.99162 9.76475C4.29432 9.88799 4.62323 9.93284 4.94788 9.89514C5.36332 9.89641 5.7778 9.85497 6.18477 9.77145C6.58057 9.6725 6.98875 9.56118 7.42166 9.42512L7.92878 11.2186C7.41908 11.47 6.87843 11.653 6.32083 11.7628C5.70194 11.8876 5.07208 11.9497 4.44075 11.9484C3.6934 11.974 2.94862 11.8478 2.25146 11.5773C1.72593 11.3662 1.2622 11.0259 0.903247 10.5878C0.56604 10.1484 0.325755 9.64253 0.19822 9.10353C0.0612214 8.50731 -0.00520201 7.89704 0.000317694 7.2853C0.00353725 6.71966 0.0657178 6.15589 0.185851 5.60313C0.312104 5.02958 0.551816 4.48707 0.890878 4.00754C1.24622 3.48504 1.72672 3.05982 2.28856 2.77065C3.00617 2.44779 3.7913 2.3035 4.57681 2.35011C4.98498 2.35011 5.43026 2.35011 5.92502 2.43669C6.43564 2.507 6.93734 2.63139 7.42166 2.80776C7.42166 3.11698 7.29797 3.43858 7.22376 3.73543C7.14954 4.03228 7.0877 4.36624 7.01348 4.68783C6.65408 4.58283 6.28546 4.51241 5.91265 4.47756C5.60779 4.4607 5.30222 4.4607 4.99735 4.47756C4.67382 4.45757 4.35006 4.51309 4.05168 4.63974C3.75329 4.7664 3.48845 4.96071 3.27808 5.20733C2.88376 5.78447 2.69233 6.47624 2.73384 7.17398Z" fill="white"/>
<path d="M13.6802 2.31322C14.5068 2.26666 15.3319 2.42827 16.0798 2.78324C16.594 3.07927 17.0207 3.50599 17.3167 4.02013C17.5966 4.46633 17.774 4.96903 17.8362 5.49203C17.9059 5.9589 17.9431 6.43006 17.9475 6.90209V7.86686H11.8496C11.8184 8.43727 12.004 8.99841 12.3691 9.43771C12.8693 9.84422 13.5083 10.0395 14.1503 9.98194C14.6535 9.98357 15.1555 9.92964 15.6469 9.82115C16.1479 9.72038 16.6401 9.57975 17.1188 9.4006L17.663 11.0457C17.0561 11.3825 16.4012 11.6244 15.7211 11.7631C15.0738 11.8945 14.415 11.9608 13.7545 11.961C12.9696 11.9892 12.1871 11.8588 11.4538 11.5775C10.9025 11.3518 10.4174 10.9901 10.0438 10.5262C9.69559 10.0827 9.45052 9.56719 9.32639 9.01717C9.2038 8.41903 9.14575 7.80946 9.15323 7.19894C9.16174 6.65335 9.22807 6.11021 9.35113 5.57861C9.47095 5.00894 9.70673 4.47002 10.0438 3.99539C10.402 3.48 10.8766 3.05626 11.4291 2.7585C12.127 2.41108 12.9013 2.24517 13.6802 2.27612V2.31322ZM13.7792 3.99539C13.4849 3.98313 13.192 4.04256 12.9257 4.16856C12.7065 4.27474 12.5157 4.43162 12.3691 4.62621C12.2253 4.83378 12.1167 5.06362 12.0476 5.3065C11.956 5.591 11.902 5.88621 11.8868 6.18469H15.4737C15.4838 5.654 15.3559 5.12979 15.1027 4.66331C14.9575 4.45273 14.7573 4.28602 14.524 4.18133C14.2906 4.07665 14.033 4.038 13.7792 4.06961" fill="white"/>
<path d="M25.7153 11.8123V6.08554C25.7287 5.86722 25.7287 5.6483 25.7153 5.42999C25.6776 5.25694 25.6061 5.09302 25.505 4.9476C25.406 4.79455 25.264 4.6741 25.0969 4.60127C24.8735 4.50956 24.633 4.46736 24.3918 4.47758C24.0282 4.48969 23.669 4.56071 23.3281 4.68785C22.9627 4.81375 22.6105 4.97532 22.2767 5.17024V11.8123H19.5803V2.5604H22.0541V3.41385H22.1283C22.6529 3.05427 23.2282 2.77496 23.8352 2.58514C24.3407 2.40857 24.8708 2.31257 25.4061 2.30065C25.9124 2.28294 26.4171 2.36706 26.8903 2.54803C27.2406 2.69486 27.5442 2.93432 27.7685 3.24069C27.9873 3.54189 28.1353 3.88859 28.2014 4.25494C28.2772 4.66285 28.3144 5.07696 28.3128 5.49183V11.8123H25.7153Z" fill="white"/>
<path d="M33.6065 0V2.54799H36.3029V4.31675H33.6065V8.49743C33.5748 8.88032 33.6705 9.26295 33.8786 9.5859C34.0067 9.71089 34.1604 9.80658 34.3291 9.86637C34.4978 9.92617 34.6775 9.94864 34.8557 9.93223C35.0831 9.93855 35.3107 9.92614 35.536 9.89512C35.8082 9.89512 36.1174 9.79617 36.4513 9.72196L36.7977 11.4783C36.3709 11.6542 35.9275 11.7868 35.4742 11.8741C35.0418 11.9548 34.603 11.9962 34.1631 11.9978C33.6265 12.0141 33.0911 11.9388 32.5799 11.7752C32.2066 11.6545 31.8675 11.4467 31.5904 11.1691C31.3575 10.9202 31.1878 10.6191 31.0956 10.2909C30.9832 9.94319 30.9248 9.58027 30.9224 9.21483V4.26727H29.6855V2.84485L31.1203 2.47378C31.1858 2.33416 31.2396 2.18936 31.2811 2.04087C31.343 1.8306 31.4048 1.60796 31.4667 1.36058L31.6522 0.618445C31.714 0.408174 31.7635 0.259747 31.7883 0.185533L33.6065 0Z" fill="white"/>
<path d="M42.2772 2.31322C43.0831 2.27697 43.8856 2.43832 44.6149 2.78324C45.129 3.07927 45.5558 3.50599 45.8518 4.02013C46.1316 4.46633 46.3091 4.96903 46.3713 5.49203C46.441 5.9589 46.4782 6.43006 46.4826 6.90209V7.86686H40.4466C40.406 8.46152 40.6015 9.04821 40.9908 9.49955C41.491 9.90606 42.13 10.1013 42.7719 10.0438C43.2752 10.0454 43.7771 9.99149 44.2686 9.88299C44.7798 9.7634 45.2804 9.60206 45.7652 9.4006L46.3094 11.0457C45.706 11.3804 45.0555 11.6223 44.3799 11.7631C43.7283 11.8938 43.0654 11.9601 42.4009 11.961C41.616 11.9892 40.8335 11.8588 40.1003 11.5775C39.547 11.3552 39.0611 10.9929 38.6902 10.5262C38.342 10.0827 38.0969 9.56719 37.9728 9.01717C37.8419 8.41993 37.7756 7.81035 37.7749 7.19894C37.7772 6.65295 37.8437 6.10912 37.9728 5.57861C38.0926 5.00894 38.3284 4.47002 38.6655 3.99539C39.0237 3.48 39.4983 3.05626 40.0508 2.7585C40.7487 2.41108 41.5229 2.24517 42.3019 2.27612L42.2772 2.31322ZM42.4009 3.99539C42.1066 3.98313 41.8137 4.04256 41.5474 4.16856C41.3282 4.27474 41.1374 4.43162 40.9908 4.62621C40.847 4.83378 40.7384 5.06362 40.6692 5.3065C40.5838 5.56712 40.5298 5.83703 40.5084 6.11048H44.0954C44.1054 5.57979 43.9776 5.05558 43.7243 4.5891C43.5792 4.37852 43.379 4.21181 43.1457 4.10712C42.9123 4.00243 42.6547 3.96379 42.4009 3.99539Z" fill="white"/>
<path d="M51.0345 4.20543C51.2932 3.94681 51.5702 3.70706 51.8632 3.48803C52.1579 3.26459 52.4679 3.06207 52.7909 2.88196C53.0856 2.71512 53.3964 2.57837 53.7185 2.47378C53.987 2.37019 54.2719 2.31572 54.5596 2.31299C54.9183 2.31299 55.0915 2.52326 55.0915 2.9438C55.0871 3.15597 55.0622 3.36722 55.0173 3.57462C54.9657 3.82967 54.8996 4.08158 54.8194 4.32912C54.7328 4.5765 54.6462 4.82387 54.5472 5.04652C54.4632 5.23807 54.3595 5.42045 54.238 5.59075H51.0963V11.8123H48.3999V2.56037H51.0592C51.0592 2.77064 51.0592 3.04275 51.0592 3.35198C51.0592 3.6612 51.0592 3.93331 50.985 4.14359L51.0345 4.20543Z" fill="white"/>
</svg>
