<svg width="324" height="317" viewBox="0 0 324 317" fill="none" xmlns="http://www.w3.org/2000/svg">
<g clip-path="url(#clip0)">
<path d="M276.952 31.557C276.952 28.9919 274.827 26.9135 272.206 26.9135H51.7925C49.1714 26.9135 47.0464 28.9919 47.0464 31.557C47.0464 34.1221 49.1714 36.2006 51.7925 36.2006H272.206C274.827 36.2006 276.952 34.1215 276.952 31.557Z" fill="white"/>
<path d="M51.7925 50.2711C49.1714 50.2711 47.0464 52.3496 47.0464 54.9147C47.0464 57.4798 49.1714 59.5582 51.7925 59.5582H161.999C164.62 59.5582 166.745 57.4798 166.745 54.9147C166.745 52.3496 164.62 50.2711 161.999 50.2711H51.7925Z" fill="white"/>
<path d="M36.9108 88.9891H53.5867L48.8349 114.805C48.2793 117.822 49.7594 120.828 52.5172 122.284C55.275 123.741 58.6549 123.301 60.9286 121.189L95.5991 88.9885H228.4L263.071 121.189C265.351 123.306 268.733 123.736 271.483 122.284C274.241 120.827 275.72 117.822 275.164 114.805L270.412 88.9891H287.088C301.488 88.9891 313.203 77.5269 313.203 63.4384V54.3599C313.203 51.7948 311.079 49.7164 308.457 49.7164C305.835 49.7164 303.711 51.7948 303.711 54.3599V63.439C303.711 72.4066 296.254 79.7026 287.088 79.7026H270.032C264.312 79.7026 259.991 84.7678 261.003 90.2688L264.599 109.804L234.844 82.168C233.131 80.5781 230.888 79.7026 228.528 79.7026H95.4713C93.1109 79.7026 90.8676 80.5787 89.1552 82.1686L59.3997 109.804L62.9953 90.2688C64.0097 84.7579 59.6781 79.7026 53.9664 79.7026H36.9108C27.7451 79.7026 20.2881 72.4073 20.2881 63.439V25.5507C20.2881 16.5824 27.7451 9.28711 36.9108 9.28711H287.088C296.254 9.28711 303.711 16.5824 303.711 25.5507V32.6578C303.711 35.2229 305.835 37.3014 308.457 37.3014C311.079 37.3014 313.203 35.2229 313.203 32.6578V25.5507C313.202 11.4622 301.487 0 287.088 0H36.9108C22.5112 0 10.7959 11.4622 10.7959 25.5507V63.439C10.7959 77.5275 22.5112 88.9891 36.9108 88.9891Z" fill="white"/>
<path d="M311.596 285.288V256.434L322.561 205.068C330.287 168.866 302.026 134.941 264.306 134.941H197.511C193.346 134.941 189.957 138.257 189.957 142.332C189.957 150.473 193.982 157.711 200.187 162.241C195.749 171.531 193.419 181.733 193.42 191.965L193.265 204.22C193.259 204.645 193.157 205.074 192.969 205.459L184.814 222.21C180.847 230.361 186.935 239.739 196.12 239.739C198.152 239.739 199.311 241.283 199.311 242.859L199.313 264.193C199.314 273.865 207.313 281.725 217.229 281.725H217.257L240.518 281.71H240.523C242.096 281.71 243.525 282.354 244.548 283.525C245.571 284.696 246 286.18 245.753 287.702L245.156 291.397L242.593 291.639C236.427 292.22 231.777 297.227 231.777 303.287V305.298C231.777 311.751 237.143 317 243.737 317H310.943C317.538 317 322.903 311.75 322.903 305.298V296.957C322.904 290.836 318.056 285.638 311.596 285.288ZM264.307 144.228C296.077 144.228 319.75 172.805 313.269 203.169L302.993 251.31H291.263C285.742 251.31 281.252 246.916 281.252 241.515V232.091C281.252 225.68 278.159 219.511 272.979 215.587L256.439 203.057C251.465 199.288 248.494 193.363 248.494 187.206C248.494 171.032 235.044 157.873 218.513 157.873H215.334C207.231 157.873 200.526 151.907 199.567 144.228H264.307ZM251.764 277.49C248.95 274.269 244.853 272.423 240.523 272.423C240.519 272.423 240.515 272.423 240.512 272.423L217.246 272.438C217.242 272.438 217.237 272.438 217.233 272.438C212.619 272.438 208.804 268.79 208.804 264.192L208.802 242.858C208.802 236.364 203.623 230.452 196.119 230.452C193.903 230.452 192.419 228.183 193.383 226.204L201.539 209.452C202.313 207.862 202.734 206.092 202.755 204.333L202.911 192.022C202.911 183.143 204.914 174.33 208.726 166.302C213.227 167.491 216.306 167.074 218.512 167.161C229.81 167.161 239.001 176.153 239.001 187.206C239.001 196.214 243.347 204.885 250.626 210.4L267.166 222.929C270.042 225.108 271.758 228.533 271.758 232.091V241.515C271.758 252.037 280.508 260.597 291.262 260.597H302.104V286.033L254.915 290.478L255.129 289.154C255.807 284.965 254.58 280.714 251.764 277.49ZM313.412 305.298C313.412 306.629 312.305 307.713 310.944 307.713H243.739C242.378 307.713 241.271 306.629 241.271 305.298V303.287C241.271 302.036 242.231 301.003 243.503 300.883C256.287 299.679 297.013 295.843 310.708 294.553C312.127 294.413 313.412 295.507 313.412 296.957V305.298Z" fill="white"/>
<path d="M131.028 205.459C130.838 205.068 130.739 204.651 130.733 204.219L130.578 192.022C130.578 181.739 128.249 171.531 123.811 162.241C130.016 157.71 134.041 150.473 134.041 142.332C134.041 138.257 130.652 134.941 126.487 134.941H59.692C21.8934 134.941 -6.27304 168.941 1.43841 205.068L4.41199 219C4.94799 221.511 7.45962 223.121 10.0282 222.597C12.5943 222.072 14.2396 219.612 13.7042 217.102L10.7306 203.17C4.23607 172.742 27.9881 144.229 59.6926 144.229H124.433C123.474 151.907 116.769 157.874 108.666 157.874H105.487C88.9551 157.874 75.5059 171.033 75.5059 187.207C75.5059 193.363 72.5362 199.288 67.561 203.058L51.0218 215.587C45.841 219.511 42.7484 225.682 42.7484 232.092V241.516C42.7484 246.917 38.2573 251.31 32.7373 251.31H21.005L18.2567 238.434C17.7207 235.924 15.2065 234.317 12.6405 234.838C10.0744 235.362 8.42909 237.822 8.96445 240.332L12.4013 256.434V285.289C5.89594 285.646 1.09353 290.877 1.09353 296.957V305.298C1.09353 311.751 6.45914 317 13.0537 317H80.2596C86.8548 317 92.2198 311.75 92.2198 305.298V303.287C92.2198 297.227 87.5705 292.219 81.4057 291.639L78.8415 291.397L78.2441 287.703C77.7379 284.57 80.1957 281.71 83.4756 281.71H83.4794L106.737 281.726H106.764C116.572 281.726 124.684 273.972 124.684 264.194L124.686 242.859C124.686 241.238 125.97 239.718 127.68 239.737C136.913 239.894 143.199 230.459 139.183 222.21L131.028 205.459ZM82.7282 303.287V305.298C82.7282 306.629 81.6208 307.713 80.2603 307.713H13.0543C11.6931 307.713 10.5863 306.629 10.5863 305.298V296.957C10.5863 295.596 11.7241 294.541 13.0429 294.541C13.2277 294.541 80.4254 300.876 80.4963 300.883C81.7683 301.003 82.7282 302.036 82.7282 303.287ZM127.878 230.452C127.86 230.452 127.843 230.451 127.825 230.451C120.859 230.325 115.195 236.029 115.195 242.857L115.193 264.192C115.193 268.749 111.426 272.438 106.761 272.438C106.757 272.438 106.752 272.438 106.748 272.438L83.487 272.423C83.4832 272.423 83.48 272.423 83.4762 272.423C74.4036 272.423 67.4464 280.357 68.869 289.153L69.0829 290.477L21.8941 286.032V260.596H32.736C43.4901 260.596 52.2393 252.036 52.2393 241.514V232.091C52.2393 228.533 53.9561 225.108 56.8316 222.929L73.3708 210.399C80.6507 204.885 84.9969 196.214 84.9969 187.206C84.9969 176.153 94.1878 167.161 105.485 167.161C107.676 167.075 110.776 167.489 115.272 166.302C119.085 174.331 121.087 183.15 121.087 192.079L121.242 204.333C121.264 206.093 121.685 207.863 122.459 209.453L130.614 226.204C131.576 228.177 130.101 230.452 127.878 230.452Z" fill="white"/>
</g>
<defs>
<clipPath id="clip0">
<rect width="324" height="317" fill="white"/>
</clipPath>
</defs>
</svg>
