<svg width="312" height="312" viewBox="0 0 312 312" fill="none" xmlns="http://www.w3.org/2000/svg">
<g clip-path="url(#clip0)">
<path d="M163.856 171.564H38.7393C36.2152 171.564 34.1689 173.61 34.1689 176.134C34.1689 178.659 36.2152 180.705 38.7393 180.705H163.856C166.38 180.705 168.426 178.658 168.426 176.134C168.426 173.61 166.38 171.564 163.856 171.564Z" fill="white" fill-opacity="0.98"/>
<path d="M163.856 200.406H38.7393C36.2152 200.406 34.1689 202.451 34.1689 204.976C34.1689 207.501 36.2152 209.546 38.7393 209.546H163.856C166.38 209.546 168.426 207.501 168.426 204.976C168.426 202.451 166.38 200.406 163.856 200.406Z" fill="white" fill-opacity="0.98"/>
<path d="M101.298 229.247H38.7393C36.2152 229.247 34.1689 231.294 34.1689 233.818C34.1689 236.342 36.2152 238.388 38.7393 238.388H101.298C103.822 238.388 105.868 236.342 105.868 233.818C105.868 231.293 103.822 229.247 101.298 229.247Z" fill="white" fill-opacity="0.98"/>
<path d="M284.096 113.88H158.979C156.455 113.88 154.409 115.926 154.409 118.45C154.409 120.975 156.455 123.021 158.979 123.021H284.096C286.621 123.021 288.667 120.975 288.667 118.45C288.667 115.926 286.621 113.88 284.096 113.88Z" fill="white" fill-opacity="0.98"/>
<path d="M284.096 142.722H221.538C219.013 142.722 216.967 144.767 216.967 147.292C216.967 149.817 219.013 151.862 221.538 151.862H284.096C286.621 151.862 288.666 149.817 288.666 147.292C288.666 144.767 286.621 142.722 284.096 142.722Z" fill="white" fill-opacity="0.98"/>
<path d="M28.3057 34.8983H119.714C122.238 34.8983 124.284 32.8526 124.284 30.328C124.284 27.8033 122.238 25.7577 119.714 25.7577H28.3057C25.7816 25.7577 23.7354 27.8033 23.7354 30.328C23.7354 32.8526 25.7816 34.8983 28.3057 34.8983Z" fill="white" fill-opacity="0.98"/>
<path d="M28.3057 57.7487H74.0094C76.5334 57.7487 78.5797 55.703 78.5797 53.1783C78.5797 50.6537 76.5334 48.608 74.0094 48.608H28.3057C25.7816 48.608 23.7354 50.6537 23.7354 53.1783C23.7354 55.703 25.7816 57.7487 28.3057 57.7487Z" fill="white" fill-opacity="0.98"/>
<path d="M173.088 137.49H29.5073C13.2425 137.49 0.00927734 150.722 0.00927734 166.988V241.147C0.00927734 257.413 13.2419 270.645 29.5073 270.645H30.5377L24.6311 303.441C24.0729 306.541 25.5604 309.63 28.3324 311.125C31.1386 312.639 34.531 312.141 36.7863 309.999L77.2287 271.609C77.8838 270.987 78.7411 270.645 79.6442 270.645H173.087C189.352 270.645 202.585 257.413 202.585 241.147V166.988C202.586 150.722 189.353 137.49 173.088 137.49ZM193.445 241.147C193.445 252.372 184.312 261.505 173.088 261.505H79.6448C76.3896 261.505 73.297 262.739 70.9357 264.98L34.6407 299.433L39.7692 270.959C40.657 266.029 36.8661 261.504 31.8656 261.504H29.5073C18.2826 261.504 9.15051 252.371 9.15051 241.147V166.988C9.15051 155.763 18.2826 146.63 29.5073 146.63H173.088C184.312 146.63 193.445 155.763 193.445 166.988V241.147Z" fill="white" fill-opacity="0.98"/>
<path d="M17.9377 81.2967H52.0261C52.0962 81.2967 52.1614 81.3345 52.1962 81.3942L66.756 106.531C68.2721 109.149 70.9844 110.712 74.01 110.712C77.0361 110.712 79.7478 109.149 81.2646 106.531L95.8238 81.3948C95.8591 81.3339 95.9243 81.2967 95.9944 81.2967H130.082C139.838 81.2967 147.775 73.3596 147.775 63.6035V17.6926C147.774 7.93711 139.838 0 130.082 0H17.9377C8.18223 0 0.245117 7.93711 0.245117 17.6926V19.6237C0.245117 22.1483 2.2914 24.194 4.81543 24.194C7.33946 24.194 9.38574 22.1483 9.38574 19.6237V17.6926C9.38635 12.9766 13.2224 9.14062 17.9377 9.14062H130.082C134.797 9.14062 138.634 12.9766 138.634 17.692V63.6029C138.634 68.3183 134.797 72.1549 130.082 72.1549H95.9938C92.6739 72.1549 89.5777 73.9397 87.9135 76.8123L74.0093 100.817L60.1059 76.8123C58.4417 73.9397 55.346 72.1549 52.0255 72.1549H17.9371C13.2218 72.1549 9.38574 68.3183 9.38574 63.6029V40.9884C9.38574 38.4637 7.33946 36.4181 4.81543 36.4181C2.2914 36.4181 0.245117 38.4637 0.245117 40.9884V63.6035C0.245117 73.3596 8.18223 81.2967 17.9377 81.2967Z" fill="white" fill-opacity="0.98"/>
<path d="M285.285 85.772H157.79C143.064 85.772 131.084 97.7523 131.084 112.477V120.695C131.084 123.22 133.131 125.266 135.655 125.266C138.179 125.266 140.225 123.22 140.225 120.695V112.477C140.225 102.792 148.104 94.9126 157.789 94.9126H285.285C294.97 94.9126 302.85 102.792 302.85 112.477V177.466C302.85 187.152 294.97 195.031 285.285 195.031H283.191C278.423 195.031 274.825 199.345 275.668 204.028L279.945 227.775L248.85 198.258C246.659 196.177 243.787 195.031 240.764 195.031H219.38C216.856 195.031 214.81 197.077 214.81 199.601C214.81 202.126 216.856 204.172 219.38 204.172H240.764C241.434 204.172 242.071 204.426 242.557 204.887L278.468 238.977C280.652 241.049 283.909 241.493 286.571 240.055C289.228 238.621 290.653 235.661 290.117 232.691L284.981 204.172H285.284C300.01 204.172 311.99 192.192 311.99 177.467V112.477C311.99 97.7517 300.011 85.772 285.285 85.772Z" fill="white" fill-opacity="0.98"/>
</g>
<defs>
<clipPath id="clip0">
<rect width="312" height="312" fill="white"/>
</clipPath>
</defs>
</svg>
