<svg width="28" height="20" viewBox="0 0 28 20" fill="none" xmlns="http://www.w3.org/2000/svg">
<path d="M24.5818 0H3.42396C1.53528 0 0 1.38385 0 3.08625V16.1206C0 17.823 1.53528 19.2068 3.42396 19.2068H24.576C26.4647 19.2068 28 17.823 28 16.1206V3.09147C28.0058 1.38907 26.4705 0 24.5818 0ZM26.4415 16.1206C26.4415 17.0449 25.6073 17.7969 24.5818 17.7969H3.42396C2.39851 17.7969 1.56424 17.0449 1.56424 16.1206V3.09147C1.56424 2.16716 2.39851 1.41518 3.42396 1.41518H24.576C25.6015 1.41518 26.4357 2.16716 26.4357 3.09147V16.1206H26.4415Z" fill="white"/>
<path d="M17.659 9.4417L24.507 3.90629C24.8256 3.64518 24.8546 3.2013 24.5649 2.90887C24.2752 2.62165 23.7828 2.59554 23.4583 2.85665L14.0149 10.4966L12.1726 9.01349C12.1668 9.00826 12.161 9.00304 12.161 8.99782C12.1205 8.96126 12.0799 8.92993 12.0336 8.8986L4.53676 2.85142C4.21233 2.59032 3.71988 2.61643 3.43021 2.90887C3.14053 3.2013 3.1695 3.64518 3.49394 3.90629L10.423 9.4887L3.5229 15.3113C3.21005 15.5776 3.19267 16.0215 3.48814 16.3087C3.64457 16.455 3.85313 16.5333 4.0617 16.5333C4.25288 16.5333 4.44407 16.4706 4.5947 16.3453L11.599 10.4391L13.4993 11.9692C13.6499 12.0893 13.8353 12.1467 14.0207 12.1467C14.2061 12.1467 14.3973 12.0841 14.5421 11.964L16.4945 10.3869L23.4583 16.3505C23.609 16.4811 23.8059 16.5437 23.9971 16.5437C24.2057 16.5437 24.4085 16.4706 24.5649 16.3244C24.8604 16.0424 24.8488 15.5933 24.5359 15.327L17.659 9.4417Z" fill="white"/>
</svg>
