<svg width="21" height="29" viewBox="0 0 21 29" fill="none" xmlns="http://www.w3.org/2000/svg">
<path d="M10.4134 0C4.67146 0 0 4.5346 0 10.1083C0 11.9915 0.53739 13.8293 1.55443 15.4238L9.82066 28.3544C9.979 28.6021 10.258 28.7526 10.558 28.7526C10.5603 28.7526 10.5626 28.7526 10.5649 28.7526C10.8675 28.7503 11.147 28.5952 11.3025 28.3431L19.358 15.2872C20.3189 13.7265 20.8268 11.9357 20.8268 10.1083C20.8268 4.5346 16.1554 0 10.4134 0ZM17.8686 14.4222L10.5449 26.2921L3.02955 14.5361C2.183 13.209 1.724 11.6779 1.724 10.1083C1.724 5.46356 5.62845 1.67349 10.4134 1.67349C15.1984 1.67349 19.097 5.46356 19.097 10.1083C19.097 11.6314 18.6683 13.1233 17.8686 14.4222Z" fill="white"/>
<path d="M10.4137 5.05347C7.54276 5.05347 5.20703 7.32078 5.20703 10.1077C5.20703 12.8767 7.50475 15.1619 10.4137 15.1619C13.3586 15.1619 15.6205 12.8463 15.6205 10.1077C15.6205 7.32078 13.2847 5.05347 10.4137 5.05347ZM10.4137 13.4884C8.48975 13.4884 6.93103 11.9703 6.93103 10.1077C6.93103 8.24974 8.49976 6.72697 10.4137 6.72697C12.3277 6.72697 13.8907 8.24974 13.8907 10.1077C13.8907 11.9431 12.3682 13.4884 10.4137 13.4884Z" fill="white"/>
</svg>
