<svg width="28" height="27" viewBox="0 0 28 27" fill="none" xmlns="http://www.w3.org/2000/svg">
<path d="M21.6432 16.4826C21.0821 15.9154 20.4052 15.6121 19.6878 15.6121C18.9762 15.6121 18.2936 15.9098 17.7093 16.477L15.8811 18.2459C15.7307 18.1673 15.5803 18.0943 15.4357 18.0213C15.2274 17.9202 15.0307 17.8247 14.8629 17.7237C13.1505 16.6679 11.5943 15.292 10.1017 13.5118C9.37852 12.6246 8.89257 11.8777 8.53967 11.1195C9.01406 10.6984 9.45373 10.2603 9.88184 9.83915C10.0438 9.6819 10.2058 9.51905 10.3678 9.36181C11.5827 8.1825 11.5827 6.65501 10.3678 5.47571L8.78843 3.94261C8.60909 3.76852 8.42396 3.58881 8.2504 3.40911C7.90329 3.06093 7.53882 2.70152 7.16278 2.36458C6.60161 1.82547 5.93053 1.53906 5.22473 1.53906C4.51893 1.53906 3.83627 1.82547 3.25775 2.36458C3.25196 2.37019 3.25196 2.37019 3.24618 2.37581L1.2792 4.30201C0.538691 5.02083 0.116369 5.89689 0.0238054 6.91334C-0.11504 8.55314 0.38249 10.0806 0.764315 11.0802C1.70152 13.5343 3.10155 15.8087 5.19002 18.2459C7.72395 21.183 10.7728 23.5023 14.2555 25.1365C15.5861 25.7486 17.3621 26.473 19.3465 26.5966C19.468 26.6022 19.5952 26.6078 19.711 26.6078C21.0473 26.6078 22.1697 26.1417 23.049 25.2151C23.0548 25.2038 23.0664 25.1982 23.0722 25.187C23.373 24.8332 23.7201 24.5131 24.0846 24.1706C24.3333 23.9403 24.5879 23.6988 24.8367 23.4461C25.4094 22.8677 25.7102 22.1938 25.7102 21.5031C25.7102 20.8067 25.4036 20.1384 24.8193 19.5769L21.6432 16.4826ZM23.7143 22.396C23.7085 22.396 23.7085 22.4016 23.7143 22.396C23.4887 22.6318 23.2573 22.8452 23.0085 23.0811C22.6325 23.4293 22.2507 23.7943 21.892 24.2042C21.3077 24.8107 20.6192 25.0971 19.7167 25.0971C19.63 25.0971 19.5374 25.0971 19.4506 25.0915C17.7324 24.9848 16.1357 24.3334 14.9381 23.7774C11.6637 22.2387 8.78843 20.0542 6.39913 17.2856C4.42637 14.9776 3.10733 12.8436 2.23376 10.5523C1.69574 9.15402 1.49904 8.06457 1.58582 7.03689C1.64367 6.37984 1.90401 5.83511 2.38418 5.36901L4.35694 3.45403C4.64042 3.19571 4.94125 3.05532 5.2363 3.05532C5.60077 3.05532 5.89582 3.26871 6.08094 3.44842C6.08673 3.45403 6.09251 3.45965 6.0983 3.46527C6.4512 3.78536 6.78674 4.11669 7.13964 4.47049C7.31898 4.65019 7.50411 4.82989 7.68924 5.01521L9.26861 6.54832C9.88184 7.14359 9.88184 7.69393 9.26861 8.2892C9.10083 8.45206 8.93885 8.61491 8.77108 8.77215C8.28512 9.25511 7.8223 9.70437 7.31898 10.1424C7.30741 10.1536 7.29584 10.1592 7.29006 10.1705C6.79253 10.6534 6.88509 11.1252 6.98922 11.4453C6.99501 11.4621 7.00079 11.4789 7.00658 11.4958C7.41733 12.4617 7.99585 13.3715 8.87521 14.4553L8.881 14.4609C10.4777 16.3703 12.1612 17.8584 14.0183 18.9984C14.2555 19.1445 14.4985 19.2624 14.7299 19.3747C14.9381 19.4758 15.1348 19.5712 15.3026 19.6723C15.3257 19.6836 15.3489 19.7004 15.372 19.7116C15.5687 19.8071 15.7539 19.852 15.9448 19.852C16.4249 19.852 16.7258 19.56 16.8241 19.4645L18.8027 17.544C18.9994 17.353 19.3118 17.1228 19.6762 17.1228C20.0349 17.1228 20.33 17.3418 20.5093 17.5327C20.5151 17.5383 20.5151 17.5383 20.5209 17.544L23.7085 20.6382C24.3044 21.211 24.3044 21.8007 23.7143 22.396Z" fill="white"/>
<path d="M14.7933 6.32913C16.309 6.57622 17.6859 7.27257 18.7851 8.33956C19.8843 9.40655 20.5958 10.7431 20.8562 12.2144C20.9198 12.5851 21.2496 12.8434 21.6256 12.8434C21.6719 12.8434 21.7124 12.8378 21.7587 12.8322C22.1868 12.7648 22.4703 12.3717 22.4008 11.9561C22.0884 10.1759 21.2206 8.55296 19.8958 7.26696C18.571 5.98096 16.8991 5.13859 15.0652 4.83535C14.6371 4.76796 14.2379 5.04313 14.1627 5.45308C14.0875 5.86302 14.3652 6.26174 14.7933 6.32913Z" fill="white"/>
<path d="M27.3588 11.7373C26.8439 8.80583 25.4207 6.13835 23.2339 4.01559C21.0471 1.89284 18.2991 0.51136 15.2792 0.0115581C14.8569 -0.0614468 14.4577 0.219341 14.3825 0.629291C14.3131 1.04486 14.5966 1.43234 15.0247 1.50535C17.7206 1.94899 20.1793 3.19008 22.1347 5.08258C24.0901 6.98071 25.3629 9.36741 25.8199 11.9843C25.8836 12.355 26.2133 12.6133 26.5894 12.6133C26.6356 12.6133 26.6761 12.6077 26.7224 12.6021C27.1447 12.5403 27.434 12.1472 27.3588 11.7373Z" fill="white"/>
</svg>
