<svg width="30" height="29" viewBox="0 0 30 29" fill="none" xmlns="http://www.w3.org/2000/svg">
<path d="M28.435 8.7711C26.8736 5.2373 24.2201 2.66727 20.5493 1.14754C18.7145 0.387978 16.7924 0 14.7843 0C12.7765 0 10.8685 0.384314 9.03581 1.14754C5.39536 2.66323 2.73015 5.23162 1.16591 8.7711C0.382071 10.5444 0 12.4021 0 14.3511C0 16.3004 0.382071 18.1736 1.16591 19.9473C2.73015 23.4867 5.3957 26.0705 9.03581 27.5866C10.8688 28.3498 12.7764 28.7338 14.7843 28.7338C16.7921 28.7338 18.7145 28.3458 20.549 27.5866C24.2198 26.0668 26.8733 23.4807 28.4351 19.9473C29.2213 18.1679 29.6172 16.3004 29.6172 14.3511C29.6172 12.4021 29.2216 10.5504 28.435 8.7711ZM26.0711 20.7018C24.9086 22.637 23.316 24.1722 21.3103 25.3073C19.3167 26.4357 17.1323 27.0048 14.7846 27.0048C13.0197 27.0048 11.3356 26.6748 9.73225 25.9988C8.129 25.3231 6.74474 24.4348 5.58676 23.311C4.42879 22.187 3.50712 20.8302 2.81794 19.2712C2.13079 17.7179 1.79779 16.0647 1.79779 14.3511C1.79779 12.0719 2.3747 9.96224 3.53064 8.0324C4.6907 6.09552 6.28359 4.55864 8.27515 3.42683C10.2664 2.29508 12.4366 1.72901 14.7843 1.72901C17.1323 1.72901 19.3163 2.29841 21.31 3.42683C23.3157 4.56197 24.9048 6.0988 26.0707 8.03235C27.2366 9.96557 27.8195 12.0719 27.8195 14.3511C27.8195 16.6304 27.2405 18.7544 26.0711 20.7018Z" fill="white"/>
<path d="M15.7235 14.2256V6.08313C15.7235 5.59589 15.2861 5.20288 14.7842 5.20288C14.3147 5.20288 13.8936 5.59589 13.8936 6.08313V14.3513C13.8936 14.3671 13.926 14.4301 13.926 14.4771C13.8936 14.7601 13.9748 14.9958 14.1689 15.1846L19.0109 19.8845C19.3349 20.199 19.9339 20.199 20.2577 19.8845C20.63 19.523 20.6055 18.9985 20.2577 18.6584L15.7235 14.2256Z" fill="white"/>
</svg>
