<svg width="66" height="12" viewBox="0 0 66 12" fill="none" xmlns="http://www.w3.org/2000/svg">
<path d="M2.73523 7.17393C2.69628 7.87861 2.86394 8.57933 3.21761 9.19006C3.42285 9.4447 3.68944 9.643 3.99234 9.76632C4.29525 9.88965 4.62453 9.93396 4.94926 9.89509C5.36478 9.89781 5.7794 9.85635 6.18615 9.7714C6.59433 9.67245 7.0025 9.56113 7.42304 9.42507L7.93017 11.2186C7.42047 11.47 6.87981 11.6529 6.32221 11.7628C5.70324 11.887 5.07344 11.9491 4.44214 11.9483C3.69479 11.974 2.95 11.8477 2.25284 11.5773C1.71699 11.3663 1.24425 11.0213 0.879893 10.5754C0.542686 10.136 0.302401 9.63011 0.174866 9.09111C0.0471438 8.49794 -0.0109694 7.89189 0.00170215 7.28525C0.0049217 6.71961 0.0671042 6.15584 0.187238 5.60308C0.31349 5.02953 0.553202 4.48702 0.892264 4.0075C1.24609 3.48825 1.72172 3.06357 2.27758 2.77061C2.99982 2.44858 3.78874 2.30437 4.5782 2.35006C4.98637 2.35006 5.43165 2.35006 5.92641 2.43665C6.44939 2.50548 6.96354 2.62987 7.46015 2.80771C7.3983 3.11693 7.33646 3.43853 7.26224 3.73538C7.18803 4.03223 7.12619 4.36619 7.05198 4.68778C6.6923 4.58391 6.32379 4.51352 5.95114 4.47751C5.64628 4.46065 5.34071 4.46065 5.03584 4.47751C4.71231 4.45752 4.38855 4.51304 4.09017 4.6397C3.79178 4.76635 3.52694 4.96066 3.31657 5.20728C2.89837 5.79328 2.69324 6.50471 2.73523 7.22341" fill="white"/>
<path d="M18.5552 7.17392C18.5602 7.79602 18.4812 8.41596 18.3201 9.01688C18.1614 9.58459 17.8831 10.1118 17.5038 10.563C17.1037 11.0255 16.5991 11.3859 16.0319 11.6144C14.6114 12.1171 13.0614 12.1171 11.6409 11.6144C11.0938 11.3867 10.607 11.0353 10.2185 10.5877C9.84469 10.1412 9.57435 9.61739 9.4269 9.05399C9.27039 8.44377 9.19144 7.81626 9.1919 7.18629C9.19201 6.55791 9.28368 5.9329 9.46401 5.33095C9.62436 4.76509 9.90729 4.24145 10.2927 3.79721C10.6908 3.33489 11.1903 2.97084 11.7523 2.73348C12.443 2.45354 13.1841 2.3188 13.9292 2.33768C14.667 2.32401 15.3998 2.46297 16.0814 2.74585C16.6403 2.97028 17.1338 3.33185 17.5162 3.79721C17.8886 4.24761 18.1549 4.77603 18.2954 5.34332C18.464 5.93905 18.5514 6.55481 18.5552 7.17392ZM15.7722 7.17392C15.7567 6.842 15.7195 6.51146 15.6608 6.18441C15.6148 5.85983 15.5231 5.54337 15.3887 5.24437C15.279 4.95509 15.0905 4.7023 14.8445 4.51461C14.5666 4.33048 14.2374 4.23951 13.9044 4.25486C13.5637 4.23933 13.2266 4.3301 12.9397 4.51461C12.683 4.6807 12.474 4.91093 12.3336 5.18253C12.1811 5.47741 12.0767 5.79475 12.0244 6.12256C11.9638 6.478 11.9348 6.83811 11.9378 7.19866C11.9362 7.58334 11.961 7.96767 12.012 8.34896C12.0525 8.67002 12.1532 8.98055 12.3089 9.26426C12.4539 9.51208 12.6578 9.72026 12.9026 9.87034C13.2105 10.0331 13.5566 10.11 13.9044 10.093C14.2304 10.1205 14.5573 10.0517 14.8445 9.89508C15.0889 9.74155 15.2859 9.52316 15.4135 9.26426C15.5497 8.96592 15.6413 8.6492 15.6856 8.32423C15.7357 7.96359 15.7605 7.59987 15.7598 7.23576" fill="white"/>
<path d="M26.3353 11.8123V6.08548C26.3353 5.85047 26.3353 5.62783 26.3353 5.42992C26.2926 5.25852 26.2215 5.09548 26.125 4.94754C26.026 4.79449 25.884 4.67403 25.7168 4.60121C25.4942 4.50712 25.2532 4.46482 25.0118 4.47752C24.6482 4.48963 24.289 4.56065 23.9481 4.68779C23.5827 4.81369 23.2305 4.97526 22.8967 5.17018V11.8123H20.2003V2.56034H22.7483V3.41379H22.8225C23.3455 3.0514 23.9212 2.77187 24.5294 2.58508C25.0303 2.40715 25.5565 2.31109 26.0879 2.30059C26.5982 2.2842 27.1067 2.36825 27.5846 2.54797C27.9306 2.70176 28.2326 2.93992 28.4627 3.24063C28.6716 3.54595 28.8148 3.89133 28.8833 4.25488C28.959 4.66278 28.9963 5.0769 28.9946 5.49177V11.8123H26.3353Z" fill="white"/>
<path d="M34.2266 0V2.54799H36.9354V4.31675H34.2266V8.49743C34.2012 8.87979 34.2963 9.2605 34.4987 9.5859C34.6268 9.71089 34.7806 9.80658 34.9493 9.86637C35.118 9.92617 35.2976 9.94864 35.4759 9.93223C35.7033 9.93913 35.9309 9.92672 36.1562 9.89512C36.4283 9.89512 36.7375 9.79617 37.0838 9.72196L37.4178 11.4783C36.991 11.6542 36.5476 11.7868 36.0943 11.8741C35.6619 11.9548 35.2231 11.9962 34.7832 11.9978C34.2467 12.0141 33.7112 11.9388 33.2 11.7752C32.8245 11.6481 32.4881 11.4266 32.2229 11.132C31.9822 10.8869 31.8077 10.5848 31.7157 10.2538C31.6256 9.91483 31.5799 9.56558 31.5797 9.21483V4.26727H30.3428V2.84485L31.7405 2.47378C31.8114 2.33653 31.8654 2.19116 31.9013 2.04087C31.9013 1.8306 32.0249 1.60796 32.0868 1.36058L32.2723 0.618445C32.2723 0.408174 32.3836 0.259747 32.4084 0.185533L34.2266 0Z" fill="white"/>
<path d="M46.7438 10.0189H47.9807L48.1044 11.5279C47.7513 11.6835 47.3821 11.7996 47.0036 11.8742C46.5969 11.9599 46.1822 12.0014 45.7667 11.9979C45.4219 12.0104 45.0789 11.9427 44.7648 11.8C44.614 11.7002 44.4907 11.5641 44.4064 11.4041C44.3221 11.2441 44.2794 11.0655 44.2824 10.8847C43.9855 11.1393 43.6519 11.3478 43.2929 11.5031C42.9998 11.6481 42.6932 11.7641 42.3776 11.8495C42.123 11.9206 41.862 11.9661 41.5983 11.9855H41.0665C40.5777 12.0059 40.0908 11.9128 39.6441 11.7134C39.3035 11.5561 39.0032 11.3235 38.7659 11.0331C38.5703 10.7748 38.4275 10.4806 38.3453 10.1673C38.2743 9.88406 38.2369 9.59344 38.234 9.30146C38.2272 8.87494 38.3159 8.45231 38.4938 8.06457C38.6619 7.70997 38.9121 7.40047 39.2235 7.16164C39.5439 6.90695 39.9088 6.71401 40.2996 6.59267C40.7399 6.44907 41.1976 6.36585 41.6602 6.34529L42.8971 6.27108L44.134 6.19687V5.94949C44.1801 5.50815 44.0562 5.06582 43.7876 4.7126C43.6007 4.55125 43.3817 4.43143 43.145 4.36106C42.9083 4.2907 42.6594 4.27139 42.4147 4.30443C41.9175 4.30659 41.4212 4.34795 40.9304 4.42811C40.4739 4.5346 40.0238 4.66675 39.5822 4.82392C39.5822 4.52707 39.4462 4.25495 39.3719 3.97047L39.1493 3.14175C39.7659 2.88611 40.4089 2.69945 41.0665 2.58515C41.7544 2.44478 42.4547 2.37433 43.1568 2.37488C43.665 2.37173 44.1716 2.42987 44.6658 2.54804C45.0672 2.64934 45.4425 2.83486 45.7667 3.09227C46.0885 3.35347 46.3359 3.69473 46.4841 4.08179C46.6709 4.56661 46.7592 5.08381 46.7438 5.60316V10.0189ZM42.3157 7.81719C41.4911 7.89141 41.0789 8.3037 41.0789 9.05408C41.0569 9.37841 41.1636 9.69833 41.3757 9.94464C41.6467 10.1648 41.9926 10.2712 42.3405 10.2415C42.6659 10.2332 42.986 10.1574 43.2805 10.0189C43.6346 9.87381 43.9609 9.66878 44.2453 9.41278V7.66877L42.3157 7.81719Z" fill="white"/>
<path d="M51.9512 7.17405C51.9123 7.87873 52.0799 8.57944 52.4336 9.19018C52.6454 9.45361 52.9222 9.65721 53.2367 9.78086C53.5513 9.90451 53.8927 9.94392 54.2271 9.89521C54.6425 9.89648 55.057 9.85503 55.464 9.77152C55.8598 9.67257 56.268 9.56125 56.7009 9.42519L57.208 11.2187C56.6983 11.4701 56.1577 11.6531 55.6 11.7629C54.9811 11.8871 54.3513 11.9492 53.72 11.9484C52.9726 11.9741 52.2279 11.8478 51.5307 11.5774C50.9948 11.3664 50.5221 11.0215 50.1577 10.5755C49.8309 10.1376 49.5992 9.63627 49.4774 9.1036C49.3465 8.50636 49.2802 7.89678 49.2795 7.28537C49.2868 6.71929 49.3532 6.15551 49.4774 5.6032C49.6037 5.02964 49.8434 4.48714 50.1825 4.00761C50.5363 3.48836 51.0119 3.06369 51.5678 2.77072C52.2858 2.4317 53.0749 2.27049 53.8684 2.3007C54.2766 2.3007 54.7219 2.3007 55.2166 2.38728C55.7398 2.45498 56.2541 2.5794 56.7504 2.75835C56.7504 3.06757 56.6267 3.38917 56.5525 3.68602C56.4782 3.98287 56.4164 4.31683 56.3422 4.63842C55.9828 4.53342 55.6142 4.46301 55.2414 4.42815C54.9365 4.41129 54.6309 4.41129 54.3261 4.42815C54.0025 4.40816 53.6788 4.46368 53.3804 4.59034C53.082 4.71699 52.8171 4.9113 52.6068 5.15792C52.1622 5.73419 51.9306 6.4465 51.9512 7.17405Z" fill="white"/>
<path d="M61.9082 0V2.54799H64.6047V4.31675H61.9082V8.49743C61.8791 8.87847 61.9699 9.25908 62.168 9.5859C62.2975 9.71256 62.4533 9.80924 62.6242 9.86908C62.7952 9.92893 62.9773 9.95048 63.1575 9.93223C63.3808 9.93903 63.6043 9.92661 63.8254 9.89512C64.1099 9.89512 64.4191 9.79617 64.7531 9.72196L65.0994 11.4783C64.672 11.6525 64.2288 11.7851 63.7759 11.8741C63.3394 11.9549 62.8964 11.9963 62.4525 11.9978C61.916 12.0131 61.3807 11.9379 60.8693 11.7752C60.4992 11.6553 60.1639 11.4473 59.8921 11.1691C59.6551 10.9233 59.4847 10.621 59.3974 10.2909C59.297 9.95378 59.247 9.60368 59.2489 9.25194V4.30438H57.9502V2.84485L59.3726 2.47378C59.4324 2.3332 59.482 2.18853 59.5211 2.04087C59.5211 1.8306 59.6447 1.60796 59.7066 1.36058C59.7684 1.1132 59.8426 0.90293 59.9045 0.68029L60.0282 0.247378L61.9082 0Z" fill="white"/>
</svg>
