<svg width="1920" height="60" viewBox="0 0 1920 60" fill="none" xmlns="http://www.w3.org/2000/svg">
<path d="M1184 15.7759V39.6814L1204.35 45.0783H1325.65L1805 45.0784V15.2686L1184 15.7759Z" fill="#BCBEC0"/>
<path d="M1805 45.0784H1920.5V0L1805 15.2685V45.0784Z" fill="#808285"/>
<path d="M1441.17 45.3983L1184 59.983V15.5513L1303.31 45.3983H1441.17Z" fill="#58595B"/>
<path d="M956.589 45.2289L983.971 59.8475V15.5513L956.589 27.053V45.2289Z" fill="#A7A9AC"/>
<path d="M956.589 27.0531L983.971 15.5513H1092.38L956.589 0.119629V27.0531Z" fill="#808285"/>
<path d="M1184 15.5513H983.971V59.9999H1184V15.5513Z" fill="#D1D3D4"/>
<path d="M627.334 0.0859375L481.973 22.5135H565.888L627.334 45.4154V0.0859375Z" fill="#939598"/>
<path d="M627.334 45.4156L565.888 22.5137V59.9834L682.912 45.4156H627.334Z" fill="#808285"/>
<path d="M956.589 0.0859375H627.334V45.4154H956.589V0.0859375Z" fill="#D1D3D4"/>
<path d="M566 21.812H375V59.6197H566V21.812Z" fill="#D1D3D4"/>
<path d="M0 14.1792V38.4871H317.963L375 42.8972V38.4871V21.8121L481.95 22.5133L537.226 14.1792H0Z" fill="#808285"/>
<path d="M317.963 37.8618H177.282L375 59.6197V21.812L317.963 37.8618Z" fill="#939598"/>
</svg>
