<svg width="117" height="12" viewBox="0 0 117 12" fill="none" xmlns="http://www.w3.org/2000/svg">
<path d="M1.15 0.15V4.15C1.15 5.65 1.15 6.88 1.04 8.15C1.52 7.15 2.11 6.15 2.8 5.02L5.87 0.15H7.09V9.6H5.94V5.6C5.94 4.07 5.94 2.95 6.05 1.76C5.5198 2.84319 4.92196 3.89193 4.26 4.9L1.26 9.6H0V0.15H1.15Z" fill="white"/>
<path d="M15.67 0.15V8.6H16.5L16.41 11.83H15.46L15.38 9.6H9.38L9.3 11.86H8.39L8.3 8.63L9 8.6C9.37865 7.94429 9.68702 7.25045 9.92 6.53C10.2603 5.225 10.4118 3.87798 10.37 2.53V0.15H15.67ZM11.52 2.94C11.5551 4.23954 11.3967 5.53707 11.05 6.79C10.855 7.41455 10.597 8.01766 10.28 8.59H14.45V1.16H11.52V2.94Z" fill="white"/>
<path d="M22.92 5.17H19.25V8.57H23.34V9.57H18V0.15H23.1V1.15H19.25V4.15H22.92V5.17Z" fill="white"/>
<path d="M32.88 5.45C32.81 4.13 32.72 2.55 32.74 1.37H32.69C32.37 2.48 32 3.66 31.5 5L29.84 9.54H28.91L27.39 5C26.94 3.67 26.56 2.45 26.29 1.33C26.29 2.51 26.2 4.09 26.11 5.51L25.83 9.6H24.67L25.33 0.15H26.88L28.49 4.72C28.88 5.88 29.21 6.92 29.49 7.9C29.72 6.9 30.06 5.9 30.49 4.72L32.16 0.15H33.72L34.3 9.6H33.11L32.88 5.45Z" fill="white"/>
<path d="M40.36 0.15V4.15H44.93V0.15H46.16V9.6H44.93V5.17H40.36V9.6H39.14V0.15H40.36Z" fill="white"/>
<path d="M49.8 6.63L48.8 9.63H47.56L50.76 0.15H52.24L55.46 9.6H54.15L53.15 6.6L49.8 6.63ZM52.89 5.63L52 3C51.79 2.38 51.65 1.82 51.51 1.27C51.37 1.83 51.22 2.41 51.03 2.98L50.11 5.71L52.89 5.63Z" fill="white"/>
<path d="M61 0.15V4.34H61.38L64.62 0.15H66.1L62.52 4.48C64.08 4.69 64.68 5.65 65.17 6.92C65.4526 7.83144 65.7865 8.72619 66.17 9.6H64.89C64.5434 8.87756 64.2461 8.13253 64 7.37C63.56 6.12 63 5.27 61.36 5.27H61V9.6H59.8V0.15H61Z" fill="white"/>
<path d="M75.18 4.78C75.18 8.03 73.18 9.78 70.8 9.78C68.42 9.78 66.55 7.82 66.55 5C66.55 2.18 68.42 0 70.94 0C73.46 0 75.18 2 75.18 4.78ZM67.86 4.93C67.86 6.93 68.95 8.75 70.86 8.75C72.77 8.75 73.86 6.98 73.86 4.83C73.86 2.96 72.86 0.99 70.86 0.99C68.86 0.99 67.86 2.86 67.86 4.93Z" fill="white"/>
<path d="M78 0.15V4.15H82.57V0.15H83.8V9.6H82.55V5.17H78V9.6H76.76V0.15H78Z" fill="white"/>
<path d="M87.68 1.19H84.81V0.19H91.81V1.19H88.91V9.6H87.68V1.19Z" fill="white"/>
<path d="M93.69 6.63L92.69 9.63H91.45L94.65 0.15H96.12L99.35 9.6H98L97 6.6L93.69 6.63ZM96.78 5.63L95.86 3C95.65 2.38 95.51 1.82 95.37 1.27C95.23 1.83 95.08 2.41 94.89 2.98L93.97 5.71L96.78 5.63Z" fill="white"/>
<path d="M101.93 0.15V4.34H102.31L105.55 0.15H107L103.43 4.48C104.98 4.69 105.58 5.65 106.07 6.92C106.353 7.83144 106.687 8.72619 107.07 9.6H105.75C105.451 8.87403 105.201 8.12907 105 7.37C104.56 6.12 104 5.27 102.37 5.27H101.97V9.6H100.77V0.15H101.93Z" fill="white"/>
<path d="M110.11 1.19H107.24V0.19H114.24V1.19H111.35V9.6H110.12L110.11 1.19Z" fill="white"/>
<path d="M115 8.88C114.995 8.76768 115.012 8.65544 115.051 8.55008C115.091 8.44471 115.151 8.34843 115.228 8.26707C115.306 8.18571 115.399 8.12097 115.503 8.07678C115.606 8.03259 115.718 8.00987 115.83 8.01C115.943 8.00689 116.056 8.02758 116.161 8.07074C116.266 8.1139 116.36 8.17857 116.438 8.26057C116.517 8.34257 116.577 8.44007 116.615 8.54676C116.653 8.65346 116.668 8.76699 116.66 8.88C116.668 8.99301 116.653 9.10654 116.615 9.21324C116.577 9.31993 116.517 9.41743 116.438 9.49943C116.36 9.58143 116.266 9.6461 116.161 9.68926C116.056 9.73242 115.943 9.75311 115.83 9.75C115.718 9.75013 115.606 9.72741 115.503 9.68322C115.399 9.63903 115.306 9.57429 115.228 9.49293C115.151 9.41157 115.091 9.31529 115.051 9.20992C115.012 9.10456 114.995 8.99232 115 8.88ZM115.35 6.88L115.15 0.15H116.49L116.3 6.88H115.35Z" fill="white"/>
</svg>
