<svg width="29" height="32" viewBox="0 0 29 32" fill="none" xmlns="http://www.w3.org/2000/svg">
<path d="M21.7321 32C21.7308 32 19.1316 31.9968 18.2937 31.9968C13.9698 31.9968 10.8715 31.6257 8.54337 30.8289C8.0474 30.657 7.61396 30.4661 7.23166 30.2979C6.55481 30 6.02054 29.7649 5.46625 29.7649H3.20784C2.52406 29.7649 1.53386 29.6926 0.835012 29.0676C0.0864913 28.3984 0 27.428 0 26.7563L0.000494206 16.5557C0.000494206 15.6191 0.291599 14.8284 0.842673 14.269C1.23856 13.8667 1.97052 13.3872 3.20784 13.3872C3.26838 13.3872 3.33535 13.3879 3.40801 13.3887C4.11377 13.3965 5.27498 13.4087 6.02622 12.7644C6.07194 12.6777 6.11642 12.5964 6.15645 12.5234C6.18339 12.4705 6.20884 12.427 6.22787 12.394C6.23454 12.3828 6.24146 12.3716 6.24789 12.3591C6.29978 12.2373 6.36131 12.1294 6.43397 12.0337C6.8343 11.3718 7.28479 10.7546 7.67648 10.3325C8.54164 9.39746 9.34354 8.91382 10.051 8.48682C10.8816 7.9856 11.4818 7.62354 12.0043 6.61572L12.0408 6.54565C12.823 5.03906 13.1467 4.41553 13.3424 3.66748C13.4086 3.41382 13.4378 3.14722 13.4289 2.87524C13.358 1.81958 13.8861 0.199219 15.6411 0.00585938L15.6935 0H15.7461C16.8144 0 17.7087 0.25 18.4046 0.742676C19.4403 1.47607 19.9654 2.66772 19.9654 4.28418C19.9654 7.16748 19.2517 9.47437 18.6359 10.928L25.9652 11.8372C27.721 11.9373 29.0772 13.5083 28.9966 15.3606C28.9538 16.3428 28.5416 17.2283 27.9142 17.8467C28.5073 18.4219 28.8226 19.1997 28.788 20.0947C28.7767 20.9917 28.4982 21.7085 27.9602 22.2253C27.7523 22.425 27.5198 22.5798 27.2739 22.6995C27.6901 23.2429 27.9147 23.9045 27.9147 24.605C27.9147 25.5603 27.5487 26.4321 26.884 27.0596C26.3423 27.5708 25.6338 27.8911 24.8828 27.9749C24.9997 28.2944 25.0538 28.6421 25.0392 29.0081C25.0378 29.1538 25.0237 29.4229 25.0024 29.5505C24.9056 30.1277 24.6703 30.585 24.2828 30.949C23.5516 31.6365 22.6694 32 21.7321 32ZM3.20784 15.2622C2.2898 15.2622 1.89836 15.6489 1.89836 16.5559L1.89787 26.7566C1.89787 27.0908 1.93444 27.522 2.10841 27.6777C2.19713 27.7568 2.45808 27.8899 3.20784 27.8899H5.46625C6.42408 27.8899 7.19138 28.2278 8.00391 28.5852C8.37014 28.7466 8.74872 28.9131 9.16808 29.0586C11.258 29.7737 14.2439 30.1221 18.2937 30.1221C19.1321 30.1221 21.7333 30.1252 21.7333 30.1252C22.1793 30.1252 22.5975 29.9453 22.9751 29.5906C23.023 29.5454 23.088 29.4844 23.1278 29.2576C23.1332 29.2019 23.1404 29.0605 23.1416 29.0027L23.1406 28.9824L23.1426 28.939C23.1592 28.574 22.977 28.3057 22.6014 28.1409C22.1576 27.9463 21.8907 27.4949 21.9372 27.0171C21.9957 26.4133 22.5419 25.9636 23.1537 26.0144L24.4296 26.1211C24.8596 26.1362 25.2757 25.9846 25.573 25.7041C25.8634 25.4299 26.0171 25.0498 26.0171 24.605C26.0171 24.0029 25.5725 23.321 24.5967 23.2461C24.3191 23.2251 24.0584 23.0911 23.8817 22.8784C23.705 22.6665 23.6228 22.3884 23.6554 22.1157C23.7179 21.5955 24.1664 21.2097 24.6953 21.2212C25.278 21.2319 26.2531 21.2505 26.6371 20.8813C26.6986 20.8225 26.8852 20.6431 26.8904 20.0625L26.8911 20.0308C26.927 19.2029 26.2598 18.8799 25.6936 18.7542H25.6931C25.2231 18.6497 24.8999 18.2134 24.9409 17.7395C24.9822 17.2656 25.3758 16.8904 25.857 16.8667C26.5056 16.8342 27.0639 16.1223 27.1007 15.28C27.137 14.4453 26.5714 13.7402 25.8399 13.7085L25.7633 13.7019L18.2996 12.7761C17.7273 12.7051 17.2343 12.3811 16.9471 11.8872C16.6597 11.3933 16.6246 10.8093 16.8507 10.2852C17.3052 9.23169 18.0675 7.05151 18.0675 4.28442C18.0675 2.18799 16.8717 1.88574 15.8054 1.87549C15.5964 1.9082 15.4901 2.00073 15.4093 2.21338C15.3277 2.42798 15.3191 2.67627 15.3231 2.76099L15.325 2.78345L15.3245 2.7915C15.3418 3.25 15.2931 3.70264 15.1795 4.13672C14.9311 5.08618 14.5545 5.81177 13.7294 7.40137L13.6931 7.47119C12.9272 8.94849 11.9677 9.52734 11.04 10.0872C10.4111 10.4668 9.76042 10.8591 9.0764 11.5986C8.76231 11.937 8.37236 12.4778 8.03282 13.0459L7.97327 13.1396C7.93546 13.2214 7.89913 13.2837 7.87392 13.3271C7.867 13.3394 7.85934 13.3513 7.85267 13.3645L7.83241 13.4038C7.77483 13.5081 7.70761 13.6316 7.64386 13.7573L7.57491 13.8926L7.46643 13.9998C6.15719 15.2932 4.28626 15.2732 3.38725 15.2637C3.32226 15.2627 3.26221 15.2622 3.20784 15.2622ZM23.1307 29.2405C23.1303 29.2432 23.1298 29.2461 23.1293 29.249C23.1295 29.2476 23.1298 29.2458 23.1303 29.2444L23.1307 29.2405ZM23.1315 29.2368C23.1312 29.238 23.131 29.2393 23.1307 29.2405L23.1315 29.2368ZM23.1426 29.019C23.1426 29.0215 23.1429 29.0237 23.1429 29.0256L23.1426 29.019ZM24.7429 21.3767H24.7444C24.7439 21.3767 24.7434 21.3767 24.7429 21.3767ZM25.9541 18.739C25.9536 18.739 25.9531 18.739 25.9523 18.739H25.9541Z" fill="white"/>
</svg>
