<svg width="31" height="31" viewBox="0 0 31 31" fill="none" xmlns="http://www.w3.org/2000/svg">
<path d="M10.6667 1C6.66261 1 3.41667 4.24595 3.41667 8.25V13.5667C3.41878 15.4343 4.93234 16.9479 6.8 16.95H7.28333V15.9833H6.8C5.466 15.9818 4.3849 14.9007 4.38333 13.5667V8.25C4.38333 4.77979 7.19645 1.96667 10.6667 1.96667C14.1369 1.96667 16.95 4.77979 16.95 8.25V13.5667C16.9484 14.9007 15.8673 15.9818 14.5333 15.9833H14.05V16.95H14.5333C16.401 16.9479 17.9146 15.4343 17.9167 13.5667V8.25C17.9167 4.24595 14.6707 1 10.6667 1Z" fill="white"/>
<path d="M4.98315 23.779L5.33647 23.2227L4.52012 22.7046L4.1668 23.2614C3.09821 24.9453 3.17754 27.1135 4.36642 28.7148V30H5.33308V28.55C5.33314 28.4402 5.29581 28.3336 5.22723 28.2479C4.19967 26.9633 4.10161 25.1679 4.98315 23.779Z" fill="white"/>
<path d="M27.5833 1H21.3C19.966 1.00157 18.8849 2.08267 18.8833 3.41667V8.25C18.8849 9.584 19.966 10.6651 21.3 10.6667H22.2667V12.6C22.2666 12.7954 22.3843 12.9717 22.5649 13.0466C22.6235 13.0711 22.6864 13.0835 22.75 13.0833C22.8782 13.0833 23.0011 13.0323 23.0917 12.9417L25.3668 10.6667H27.5833C28.9173 10.6651 29.9984 9.584 30 8.25V3.41667C29.9984 2.08267 28.9173 1.00157 27.5833 1ZM29.0333 8.25C29.0333 9.05082 28.3842 9.7 27.5833 9.7H25.1667C25.0385 9.7 24.9156 9.75099 24.8249 9.84162L23.2333 11.4332V10.1833C23.2333 9.91641 23.0169 9.7 22.75 9.7H21.3C20.4992 9.7 19.85 9.05082 19.85 8.25V3.41667C19.85 2.61584 20.4992 1.96667 21.3 1.96667H27.5833C28.3842 1.96667 29.0333 2.61584 29.0333 3.41667V8.25Z" fill="white"/>
<path d="M24.6833 3.41667H21.3V4.38333H24.6833V3.41667Z" fill="white"/>
<path d="M27.5833 3.41667H25.65V4.38333H27.5833V3.41667Z" fill="white"/>
<path d="M27.5833 5.35H21.3V6.31667H27.5833V5.35Z" fill="white"/>
<path d="M24.6833 7.28333H21.3V8.25H24.6833V7.28333Z" fill="white"/>
<path d="M17.1665 23.2614L16.8132 22.7046L15.9969 23.2227L16.3502 23.7795C17.2318 25.1682 17.1337 26.9635 16.1061 28.2479C16.0375 28.3336 16.0002 28.4402 16.0002 28.55V30H16.9669V28.7148C18.1558 27.1135 18.2351 24.9453 17.1665 23.2614Z" fill="white"/>
<path d="M29.5167 17.4333H25.1667C23.3532 17.4354 21.8639 18.867 21.7901 20.6789L20.3333 23.3015V21.3C20.3312 19.4323 18.8177 17.9188 16.95 17.9167H15.1834L15.1704 17.9065L15.1617 17.9167H14.05C13.5161 17.9167 13.0833 17.4839 13.0833 16.95V15.8127C14.5768 14.9504 15.4977 13.3578 15.5 11.6333V7.76667C15.4993 6.96584 15.3 6.17771 14.92 5.47277C14.7983 5.2485 14.5231 5.15745 14.2917 5.26493L6.11077 9.1142C5.94136 9.19395 5.83327 9.36439 5.83333 9.55162V11.6333C5.83563 13.3578 6.75656 14.9504 8.25 15.8127V16.95C8.25 17.4839 7.81723 17.9167 7.28333 17.9167H4.38333C2.51567 17.9188 1.00211 19.4323 1 21.3V30H1.96667V21.3C1.96824 19.966 3.04933 18.8849 4.38333 18.8833H5.9213L10.2737 24.9646C10.3631 25.0896 10.5067 25.1646 10.6604 25.1667H10.6667C10.8188 25.1667 10.962 25.095 11.0533 24.9733L15.645 18.8833H16.95C18.284 18.8849 19.3651 19.966 19.3667 21.3V25.1667C19.3669 25.4336 19.5835 25.6498 19.8504 25.6496C20.0258 25.6494 20.1872 25.5544 20.2724 25.4011L22.5509 21.3H25.3218L20.6093 30H21.7089L26.4233 21.3H26.6167C28.4843 21.2979 29.9979 19.7843 30 17.9167C30 17.6497 29.7836 17.4333 29.5167 17.4333ZM6.8 11.6333V9.85853L14.2631 6.34663C14.4417 6.79879 14.5333 7.28055 14.5333 7.76667V11.6333C14.5333 13.7688 12.8022 15.5 10.6667 15.5C8.53118 15.5 6.8 13.7688 6.8 11.6333ZM10.6768 23.8675L9.18525 21.7833H12.2476L10.6768 23.8675ZM12.9789 20.8167H8.49167L7.10788 18.8833H7.28333C8.35108 18.8833 9.21667 18.0177 9.21667 16.95V16.2439C10.1605 16.5409 11.1728 16.5409 12.1167 16.2439V16.95C12.1167 18.0177 12.9823 18.8833 14.05 18.8833H14.4367L12.9789 20.8167ZM26.6167 20.3333H22.7983C23.0294 19.2088 24.0186 18.4013 25.1667 18.4H28.985C28.7539 19.5245 27.7647 20.3321 26.6167 20.3333Z" fill="white"/>
<path d="M10.6667 1C6.66261 1 3.41667 4.24595 3.41667 8.25V13.5667C3.41878 15.4343 4.93234 16.9479 6.8 16.95H7.28333V15.9833H6.8C5.466 15.9818 4.3849 14.9007 4.38333 13.5667V8.25C4.38333 4.77979 7.19645 1.96667 10.6667 1.96667C14.1369 1.96667 16.95 4.77979 16.95 8.25V13.5667C16.9484 14.9007 15.8673 15.9818 14.5333 15.9833H14.05V16.95H14.5333C16.401 16.9479 17.9146 15.4343 17.9167 13.5667V8.25C17.9167 4.24595 14.6707 1 10.6667 1Z" stroke="white" stroke-width="0.3"/>
<path d="M4.98315 23.779L5.33647 23.2227L4.52012 22.7046L4.1668 23.2614C3.09821 24.9453 3.17754 27.1135 4.36642 28.7148V30H5.33308V28.55C5.33314 28.4402 5.29581 28.3336 5.22723 28.2479C4.19967 26.9633 4.10161 25.1679 4.98315 23.779Z" stroke="white" stroke-width="0.3"/>
<path d="M27.5833 1H21.3C19.966 1.00157 18.8849 2.08267 18.8833 3.41667V8.25C18.8849 9.584 19.966 10.6651 21.3 10.6667H22.2667V12.6C22.2666 12.7954 22.3843 12.9717 22.5649 13.0466C22.6235 13.0711 22.6864 13.0835 22.75 13.0833C22.8782 13.0833 23.0011 13.0323 23.0917 12.9417L25.3668 10.6667H27.5833C28.9173 10.6651 29.9984 9.584 30 8.25V3.41667C29.9984 2.08267 28.9173 1.00157 27.5833 1ZM29.0333 8.25C29.0333 9.05082 28.3842 9.7 27.5833 9.7H25.1667C25.0385 9.7 24.9156 9.75099 24.8249 9.84162L23.2333 11.4332V10.1833C23.2333 9.91641 23.0169 9.7 22.75 9.7H21.3C20.4992 9.7 19.85 9.05082 19.85 8.25V3.41667C19.85 2.61584 20.4992 1.96667 21.3 1.96667H27.5833C28.3842 1.96667 29.0333 2.61584 29.0333 3.41667V8.25Z" stroke="white" stroke-width="0.3"/>
<path d="M24.6833 3.41667H21.3V4.38333H24.6833V3.41667Z" stroke="white" stroke-width="0.3"/>
<path d="M27.5833 3.41667H25.65V4.38333H27.5833V3.41667Z" stroke="white" stroke-width="0.3"/>
<path d="M27.5833 5.35H21.3V6.31667H27.5833V5.35Z" stroke="white" stroke-width="0.3"/>
<path d="M24.6833 7.28333H21.3V8.25H24.6833V7.28333Z" stroke="white" stroke-width="0.3"/>
<path d="M17.1665 23.2614L16.8132 22.7046L15.9969 23.2227L16.3502 23.7795C17.2318 25.1682 17.1337 26.9635 16.1061 28.2479C16.0375 28.3336 16.0002 28.4402 16.0002 28.55V30H16.9669V28.7148C18.1558 27.1135 18.2351 24.9453 17.1665 23.2614Z" stroke="white" stroke-width="0.3"/>
<path d="M29.5167 17.4333H25.1667C23.3532 17.4354 21.8639 18.867 21.7901 20.6789L20.3333 23.3015V21.3C20.3312 19.4323 18.8177 17.9188 16.95 17.9167H15.1834L15.1704 17.9065L15.1617 17.9167H14.05C13.5161 17.9167 13.0833 17.4839 13.0833 16.95V15.8127C14.5768 14.9504 15.4977 13.3578 15.5 11.6333V7.76667C15.4993 6.96584 15.3 6.17771 14.92 5.47277C14.7983 5.2485 14.5231 5.15745 14.2917 5.26493L6.11077 9.1142C5.94136 9.19395 5.83327 9.36439 5.83333 9.55162V11.6333C5.83563 13.3578 6.75656 14.9504 8.25 15.8127V16.95C8.25 17.4839 7.81723 17.9167 7.28333 17.9167H4.38333C2.51567 17.9188 1.00211 19.4323 1 21.3V30H1.96667V21.3C1.96824 19.966 3.04933 18.8849 4.38333 18.8833H5.9213L10.2737 24.9646C10.3631 25.0896 10.5067 25.1646 10.6604 25.1667H10.6667C10.8188 25.1667 10.962 25.095 11.0533 24.9733L15.645 18.8833H16.95C18.284 18.8849 19.3651 19.966 19.3667 21.3V25.1667C19.3669 25.4336 19.5835 25.6498 19.8504 25.6496C20.0258 25.6494 20.1872 25.5544 20.2724 25.4011L22.5509 21.3H25.3218L20.6093 30H21.7089L26.4233 21.3H26.6167C28.4843 21.2979 29.9979 19.7843 30 17.9167C30 17.6497 29.7836 17.4333 29.5167 17.4333ZM6.8 11.6333V9.85853L14.2631 6.34663C14.4417 6.79879 14.5333 7.28055 14.5333 7.76667V11.6333C14.5333 13.7688 12.8022 15.5 10.6667 15.5C8.53118 15.5 6.8 13.7688 6.8 11.6333ZM10.6768 23.8675L9.18525 21.7833H12.2476L10.6768 23.8675ZM12.9789 20.8167H8.49167L7.10788 18.8833H7.28333C8.35108 18.8833 9.21667 18.0177 9.21667 16.95V16.2439C10.1605 16.5409 11.1728 16.5409 12.1167 16.2439V16.95C12.1167 18.0177 12.9823 18.8833 14.05 18.8833H14.4367L12.9789 20.8167ZM26.6167 20.3333H22.7983C23.0294 19.2088 24.0186 18.4013 25.1667 18.4H28.985C28.7539 19.5245 27.7647 20.3321 26.6167 20.3333Z" stroke="white" stroke-width="0.3"/>
</svg>
