<svg width="32" height="28" viewBox="0 0 32 28" fill="none" xmlns="http://www.w3.org/2000/svg">
<path d="M7.2095 23.1833C3.81931 20.5524 1.875 16.6239 1.875 12.4051C1.875 8.18652 3.81919 4.25806 7.20925 1.62715C7.61419 1.31288 7.68081 0.738395 7.35813 0.344082C7.0355 -0.0502925 6.44563 -0.11524 6.04069 0.199029C2.20175 3.17841 0 7.62737 0 12.4051C0 17.1831 2.20181 21.6321 6.041 24.6115C6.44569 24.9256 7.03562 24.8609 7.35844 24.4664C7.68106 24.072 7.61444 23.4976 7.2095 23.1833Z" fill="white"/>
<path d="M25.9594 0.19909C25.5544 -0.115119 24.9647 -0.0502316 24.642 0.344143C24.3193 0.738517 24.3859 1.31294 24.7909 1.62721C28.1808 4.25818 30.125 8.18658 30.125 12.4051C30.125 16.6238 28.1808 20.5522 24.7908 23.1831C24.3859 23.4974 24.3193 24.0718 24.6419 24.4662C24.9648 24.8607 25.5547 24.9252 25.9594 24.6112C29.7983 21.6318 32 17.1829 32 12.4051C32 7.62743 29.7983 3.17847 25.9594 0.19909Z" fill="white"/>
<path d="M10.3334 19.3722C8.13556 17.6696 6.875 15.1302 6.875 12.4051C6.875 9.68008 8.13556 7.14066 10.3335 5.43801C10.7387 5.12411 10.8059 4.54974 10.4836 4.15507C10.1612 3.76039 9.57144 3.69495 9.16625 4.00886C6.51856 6.05998 5 9.12026 5 12.4051C5 15.69 6.51856 18.7503 9.16619 20.8013C9.57169 21.1153 10.1613 21.0496 10.4835 20.6551C10.8058 20.2605 10.7386 19.6861 10.3334 19.3722Z" fill="white"/>
<path d="M22.8338 4.00898C22.4286 3.69514 21.8389 3.76051 21.5165 4.15519C21.1942 4.54981 21.2614 5.12423 21.6666 5.43814C23.8644 7.14072 25.125 9.68008 25.125 12.4051C25.125 15.1302 23.8644 17.6696 21.6665 19.3722C21.2613 19.6861 21.1941 20.2605 21.5164 20.6552C21.8389 21.05 22.4288 21.1151 22.8337 20.8014C25.4814 18.7503 27 15.69 27 12.4051C27 9.12032 25.4814 6.06004 22.8338 4.00898Z" fill="white"/>
<path d="M16 7.85216C13.4153 7.85216 11.3125 9.90012 11.3125 12.4174C11.3125 14.622 12.9255 16.4666 15.0625 16.8908V27.087C15.0625 27.5912 15.4823 28 16 28C16.5177 28 16.9375 27.5912 16.9375 27.087V16.8908C19.0745 16.4666 20.6875 14.6221 20.6875 12.4174C20.6875 9.90012 18.5847 7.85216 16 7.85216ZM16 15.1565C14.4492 15.1565 13.1875 13.9277 13.1875 12.4174C13.1875 10.907 14.4492 9.67825 16 9.67825C17.5508 9.67825 18.8125 10.907 18.8125 12.4174C18.8125 13.9277 17.5508 15.1565 16 15.1565Z" fill="white"/>
</svg>
