<svg width="30" height="34" viewBox="0 0 30 34" fill="none" xmlns="http://www.w3.org/2000/svg">
<path d="M3 23.9727H6V25.9648H8V12.0195H6V14.0117H4V13.0156C4 6.93726 8.9346 1.99219 15 1.99219C21.0654 1.99219 26 6.93726 26 13.0156V14.0117H24V12.0195H22V25.9648H24V23.9727H26V27.0273C26 28.6751 24.6542 30.0156 23 30.0156H17.828C17.4152 28.8562 16.3037 28.0234 15 28.0234C13.3458 28.0234 12 29.364 12 31.0117C12 32.6595 13.3458 34 15 34C16.3037 34 17.4152 33.1672 17.828 32.0078H23C25.757 32.0078 28 29.7736 28 27.0273V23.8013C29.1639 23.3901 30 22.2829 30 20.9844V17C30 15.7014 29.1639 14.5942 28 14.183V13.0156C28 5.83877 22.1682 0 15 0C7.8318 0 2 5.83877 2 13.0156V14.1831C0.836067 14.5943 0 15.7015 0 17.0001V20.9844C0 22.6321 1.3458 23.9727 3 23.9727ZM15 32.0078C14.4486 32.0078 14 31.561 14 31.0117C14 30.4625 14.4486 30.0156 15 30.0156C15.5514 30.0156 16 30.4625 16 31.0117C16 31.561 15.5514 32.0078 15 32.0078ZM28 17V20.9844C28 21.5336 27.5514 21.9805 27 21.9805H24V16.0039H27C27.5514 16.0039 28 16.4508 28 17ZM2 17C2 16.4508 2.4486 16.0039 3 16.0039H6V21.9805H3C2.4486 21.9805 2 21.5336 2 20.9844V17Z" fill="white"/>
</svg>
