<svg width="26" height="31" viewBox="0 0 26 31" fill="none" xmlns="http://www.w3.org/2000/svg">
<path d="M25.9666 7.98191C25.9507 7.14496 25.9356 6.3543 25.9356 5.58939C25.9356 4.99014 25.4508 4.50432 24.8525 4.50432C20.2206 4.50432 16.694 3.17068 13.7545 0.307239C13.334 -0.102485 12.6648 -0.102341 12.2444 0.307239C9.30511 3.17068 5.77909 4.50432 1.14749 4.50432C0.549354 4.50432 0.0644314 4.99014 0.0644314 5.58939C0.0644314 6.35444 0.0494129 7.14539 0.0333836 7.98249C-0.115068 15.7713 -0.318394 26.4385 12.6447 30.9401C12.7596 30.98 12.8795 31 12.9994 31C13.1192 31 13.2392 30.98 13.354 30.9401C26.3181 26.4383 26.1151 15.7709 25.9666 7.98191ZM12.9995 28.7634C1.88195 24.7173 2.05004 15.8536 2.19922 8.02387C2.20817 7.55396 2.21683 7.09852 2.2229 6.65204C6.56092 6.46859 10.0299 5.1516 12.9995 2.55986C15.9694 5.1516 19.4389 6.46874 23.7773 6.65204C23.7833 7.09837 23.792 7.55352 23.8009 8.02315C23.95 15.8532 24.1179 24.7171 12.9995 28.7634Z" fill="white"/>
<path d="M16.7291 11.7306L11.5017 16.9675L9.27103 14.7327C8.84806 14.3091 8.16226 14.3091 7.73944 14.7327C7.31646 15.1566 7.31646 15.8435 7.73944 16.2673L10.7359 19.2693C10.9473 19.4811 11.2246 19.587 11.5017 19.587C11.7788 19.587 12.0561 19.4811 12.2675 19.2693L18.2606 13.2652C18.6837 12.8415 18.6837 12.1544 18.2607 11.7308C17.8379 11.307 17.1521 11.3069 16.7291 11.7306Z" fill="white"/>
</svg>
