<svg width="26" height="25" viewBox="0 0 26 25" fill="none" xmlns="http://www.w3.org/2000/svg">
<path d="M5.5794 23.2204L4.00822 22.8116L6.09151 15.0353L4.52033 14.6265L2.22963 23.177C2.11498 23.605 2.37357 24.0426 2.80781 24.1556L5.95015 24.9732C6.38439 25.0862 6.82851 24.8314 6.94315 24.4034L9.23386 15.8529L7.66268 15.4441L5.5794 23.2204Z" fill="white"/>
<path d="M26 10.4094C26 8.4761 24.602 6.8588 22.75 6.48682V0.800725C22.75 0.358124 22.3866 0 21.9375 0H19.696C17.2569 0 14.963 0.936793 13.2372 2.63754C11.8193 4.03489 9.93408 4.80435 7.929 4.80435H2.43752C1.09341 4.80429 0 5.88185 0 7.20647V13.6122C0 14.9368 1.09341 16.0144 2.43752 16.0144H7.92905C9.93414 16.0144 11.8202 16.7846 13.2389 18.1828C14.9638 19.8827 17.2569 20.8187 19.696 20.8187H21.9375C22.3866 20.8187 22.75 20.4606 22.75 20.018V14.3319C24.602 13.9599 26 12.3426 26 10.4094ZM21.125 19.2173H19.696C17.6909 19.2173 15.8048 18.4471 14.3861 17.0489C12.6612 15.349 10.3681 14.4129 7.929 14.4129H2.43752C1.98922 14.4129 1.62501 14.054 1.62501 13.6122V7.20647C1.62501 6.76468 1.98922 6.40574 2.43752 6.40574H7.92905C10.3682 6.40574 12.662 5.46895 14.3878 3.7682C15.8057 2.37085 17.6909 1.6014 19.696 1.6014H21.125L21.125 19.2173ZM22.75 12.664V8.15464C23.6937 8.48629 24.375 9.36675 24.375 10.4093C24.375 11.4519 23.6937 12.3324 22.75 12.664Z" fill="white"/>
</svg>
