<svg width="36" height="30" viewBox="0 0 36 30" fill="none" xmlns="http://www.w3.org/2000/svg">
<path d="M34.3636 16.579C33.8727 16.579 33.5455 16.8948 33.5455 17.3684V27.6316C33.5455 28.1053 33.2182 28.421 32.7273 28.421H3.2727C2.78177 28.421 2.45454 28.1052 2.45454 27.6316V17.3684C2.45454 16.8947 2.12723 16.579 1.63638 16.579C1.14553 16.579 0.818227 16.8948 0.818227 17.3684V27.6316C0.818227 28.9737 1.88184 30 3.27277 30H32.7273C34.1182 30 35.1818 28.9737 35.1818 27.6316V17.3684C35.1818 16.8947 34.8545 16.579 34.3636 16.579Z" fill="white"/>
<path d="M33.5455 5.52634H2.45454C1.06362 5.52634 0 6.55264 0 7.89476V12.9474C0 14.0526 0.818156 15 1.88184 15.2368L14.7273 18V20.5263C14.7273 21 15.0546 21.3157 15.5455 21.3157H20.4545C20.9455 21.3157 21.2727 20.9999 21.2727 20.5263V18L34.1182 15.2368C35.1818 15 36 14.0526 36 12.9473V7.89469C36 6.55264 34.9364 5.52634 33.5455 5.52634ZM19.6364 19.7368H16.3637V16.579H19.6364V19.7368ZM34.3636 12.9473C34.3636 13.3421 34.1182 13.6579 33.7091 13.7368L21.2727 16.421V15.7894C21.2727 15.3158 20.9454 15 20.4545 15H15.5455C15.0545 15 14.7273 15.3158 14.7273 15.7894V16.421L2.29092 13.7369C1.88184 13.6579 1.63638 13.3421 1.63638 12.9474V7.89476C1.63638 7.42106 1.96369 7.10531 2.45454 7.10531H33.5455C34.0364 7.10531 34.3636 7.42113 34.3636 7.89476V12.9473Z" fill="white"/>
<path d="M22.0909 0H13.9091C12.5182 0 11.4545 1.0263 11.4545 2.36841V3.15786C11.4545 3.63156 11.7818 3.94731 12.2727 3.94731C12.7635 3.94731 13.0909 3.63149 13.0909 3.15786V2.36841C13.0909 1.89472 13.4182 1.57897 13.909 1.57897H22.0909C22.5818 1.57897 22.909 1.89479 22.909 2.36841V3.15786C22.909 3.63156 23.2363 3.94731 23.7272 3.94731C24.2181 3.94731 24.5453 3.63149 24.5453 3.15786V2.36841C24.5455 1.0263 23.4818 0 22.0909 0Z" fill="white"/>
</svg>
