<svg width="26" height="34" viewBox="0 0 26 34" fill="none" xmlns="http://www.w3.org/2000/svg">
<path d="M25.9999 28.1411C25.9242 23.5203 21.189 22.1551 17.7315 21.1583C17.3281 21.042 16.9401 20.9301 16.5765 20.8184V18.9122C17.2834 18.4702 17.9028 17.9013 18.4024 17.2377H20.5086C21.5392 17.2377 22.3778 16.401 22.3778 15.3727V13.1152C22.5027 12.8246 22.5721 12.5047 22.5721 12.1689V11.4668C22.5721 11.1313 22.5027 10.8117 22.3778 10.5213V9.35668C22.3778 4.19742 18.1709 0 13 0C7.83006 0 3.62407 4.19742 3.62407 9.35674V10.488C3.62407 10.4969 3.62507 10.5055 3.6254 10.5143C3.49854 10.8067 3.42786 11.1286 3.42786 11.4669V12.169C3.42786 13.4963 4.50929 14.5761 5.83851 14.5761H6.38855C6.76953 16.3988 7.89109 17.9534 9.42345 18.9119V20.8184C9.05985 20.9301 8.67195 21.042 8.26854 21.1583C4.811 22.1551 0.0758093 23.5204 6.65212e-05 28.1411C-3.65637e-08 28.1447 0 28.1483 0 28.152V33.3359C0 33.7027 0.298046 34 0.665578 34H2.63888C3.00642 34 3.30446 33.7027 3.30446 33.3359C3.30446 32.9692 3.00642 32.6719 2.63888 32.6719H1.33109V28.1575C1.35911 26.5453 2.10136 25.3368 3.66687 24.3543C4.69991 23.706 5.96285 23.2441 7.20774 22.8577L8.81584 25.9837C8.99508 26.3321 9.454 26.4505 9.78013 26.231L10.4972 25.7484L11.1128 28.0569L10.058 32.6718H2.49228C2.12475 32.6718 1.8267 32.9691 1.8267 33.3359C1.8267 33.7026 2.12475 33.9999 2.49228 33.9999H25.3344C25.702 33.9999 26 33.7026 26 33.3359V28.1519C26 28.1483 26 28.1447 25.9999 28.1411ZM17.3619 22.4342C17.4058 22.4468 17.4504 22.4597 17.4946 22.4725L16.344 24.7113L14.1908 23.2627L16.0152 22.0349C16.439 22.168 16.8898 22.298 17.3619 22.4342ZM13.0005 24.0637L14.3351 24.9617L13.6901 27.3806H12.3099L11.6651 24.9624L13.0005 24.0637ZM13.0003 22.4618L10.7545 20.9509V19.5529C11.4575 19.8009 12.213 19.937 12.9999 19.937C13.7868 19.937 14.5425 19.8014 15.2453 19.5533V20.9509L13.0003 22.4618ZM18.4224 9.4782C18.4133 9.47242 18.4042 9.46665 18.3951 9.46087C17.0294 8.59347 15.8499 7.84434 14.0017 8.37193C13.9845 8.37685 13.9675 8.38243 13.9508 8.38867C13.559 8.53549 13.2027 8.67236 12.858 8.80471C10.7533 9.61307 9.60409 10.0545 7.57754 9.9977V9.46592C7.57754 6.48267 10.01 4.05564 12.9999 4.05564C15.9898 4.05564 18.4223 6.48267 18.4223 9.46592L18.4224 9.4782ZM21.0466 15.3727C21.0466 15.6687 20.8053 15.9095 20.5086 15.9095H19.1822C19.3695 15.4859 19.5146 15.0397 19.6115 14.576H20.1616C20.474 14.576 20.7724 14.5157 21.0467 14.4072L21.0466 15.3727ZM21.241 12.1689C21.241 12.7639 20.7568 13.2479 20.1615 13.2479H19.753C19.7531 13.2314 19.7536 10.3897 19.7536 10.3897H20.1616C20.7568 10.3897 21.2411 10.8729 21.2411 11.4668L21.241 12.1689ZM5.83851 13.248C5.24329 13.248 4.75902 12.7639 4.75902 12.169V11.4669C4.75902 10.8729 5.24322 10.3898 5.83851 10.3898H6.24645C6.24645 10.3898 6.24698 13.2315 6.24711 13.248H5.83851ZM6.25889 9.06157H5.83845C5.52729 9.06157 5.23011 9.12133 4.95682 9.22891C5.02558 4.86069 8.60692 1.32813 13 1.32813C17.3943 1.32813 20.9767 4.86109 21.045 9.22964C20.7712 9.1216 20.4733 9.06157 20.1615 9.06157H19.741C19.5307 5.53352 16.5878 2.72751 13 2.72751C9.41214 2.72751 6.46922 5.53359 6.25889 9.06157ZM7.6176 13.8446C7.61754 13.844 7.6174 13.8433 7.61734 13.8426C7.59211 13.6313 7.5776 13.4166 7.5776 13.1986V11.3258C9.85474 11.3811 11.2131 10.8597 13.3362 10.0442C13.6706 9.91582 14.0163 9.78307 14.3928 9.64183C15.6501 9.29166 16.3735 9.75127 17.6803 10.5813C17.907 10.7253 18.1558 10.8832 18.4224 11.0453V13.1986C18.4224 14.1862 18.1546 15.1119 17.6895 15.9096H13C12.6325 15.9096 12.3344 16.2069 12.3344 16.5737C12.3344 16.9404 12.6325 17.2377 13 17.2377H16.6024C15.6438 18.0898 14.3817 18.6089 13 18.6089C10.2293 18.6088 7.93875 16.5242 7.6176 13.8446ZM9.6576 24.7114L8.50575 22.4724C8.54981 22.4597 8.59427 22.4468 8.63807 22.4342C9.11023 22.298 9.56096 22.1679 9.98493 22.0348L11.8101 23.2628L9.6576 24.7114ZM11.4234 32.6719L12.3292 28.7087H13.671L14.5782 32.6719H11.4234ZM15.9437 32.6719L14.8872 28.0568L15.5031 25.7475L16.2219 26.231C16.5481 26.4505 17.007 26.3321 17.1862 25.9835L18.7925 22.8578C20.0374 23.2442 21.3002 23.7061 22.3332 24.3543C23.8986 25.3367 24.641 26.5453 24.669 28.1575V32.6719H15.9437Z" fill="white"/>
</svg>
