<svg width="32" height="30" viewBox="0 0 32 30" fill="none" xmlns="http://www.w3.org/2000/svg">
<path d="M31.2381 0H0.761905C0.559835 0 0.366042 0.0803568 0.223157 0.223393C0.0802719 0.366429 0 0.560428 0 0.762712V29.2373C0 29.4396 0.0802719 29.6336 0.223157 29.7766C0.366042 29.9196 0.559835 30 0.761905 30H31.2381C31.4402 30 31.634 29.9196 31.7768 29.7766C31.9197 29.6336 32 29.4396 32 29.2373V0.762712C32 0.560428 31.9197 0.366429 31.7768 0.223393C31.634 0.0803568 31.4402 0 31.2381 0ZM1.52381 1.52542H30.4762V6.1017H1.52381V1.52542ZM1.52381 28.4746V7.62712H30.4762V28.4746H1.52381Z" fill="white"/>
<path d="M3.80952 4.57627C4.23031 4.57627 4.57143 4.23479 4.57143 3.81356C4.57143 3.39233 4.23031 3.05085 3.80952 3.05085C3.38874 3.05085 3.04762 3.39233 3.04762 3.81356C3.04762 4.23479 3.38874 4.57627 3.80952 4.57627Z" fill="white"/>
<path d="M6.85714 4.57627C7.27793 4.57627 7.61905 4.23479 7.61905 3.81356C7.61905 3.39233 7.27793 3.05085 6.85714 3.05085C6.43635 3.05085 6.09524 3.39233 6.09524 3.81356C6.09524 4.23479 6.43635 4.57627 6.85714 4.57627Z" fill="white"/>
<path d="M9.90476 4.57627C10.3256 4.57627 10.6667 4.23479 10.6667 3.81356C10.6667 3.39233 10.3256 3.05085 9.90476 3.05085C9.48397 3.05085 9.14286 3.39233 9.14286 3.81356C9.14286 4.23479 9.48397 4.57627 9.90476 4.57627Z" fill="white"/>
<path d="M28.4341 10.8068C28.4044 10.6287 28.3126 10.4669 28.175 10.3502C28.0374 10.2335 27.8629 10.1695 27.6825 10.1695H25.1429C24.9408 10.1695 24.747 10.2498 24.6041 10.3929C24.4612 10.5359 24.381 10.7299 24.381 10.9322C24.381 11.1345 24.4612 11.3285 24.6041 11.4715C24.747 11.6146 24.9408 11.6949 25.1429 11.6949H26.3264L23.1609 14.62C22.4472 13.2421 21.2546 12.1732 19.8079 11.615C18.3612 11.0567 16.7604 11.0477 15.3075 11.5896C13.8546 12.1315 12.65 13.1869 11.9209 14.5567C11.1918 15.9264 10.9885 17.5159 11.3495 19.0254L8.91429 21.0199C8.15187 21.6781 9.08749 22.8173 9.87937 22.2004L11.9205 20.5288C12.356 21.3489 12.9658 22.0635 13.7071 22.622C14.4484 23.1805 15.303 23.5695 16.2108 23.7614C17.1185 23.9534 18.0573 23.9436 18.9609 23.7329C19.8645 23.5222 20.7109 23.1157 21.4404 22.5419L26.128 27.2344C26.8568 27.9278 27.8979 26.8848 27.2055 26.1558L22.5179 21.4633C23.0967 20.7258 23.5051 19.8691 23.7138 18.9547C23.9224 18.0404 23.9262 17.0911 23.7247 16.1751L27.2422 12.925L27.439 14.1085C27.6321 15.1 29.0827 14.8506 28.9421 13.8577L28.4341 10.8068ZM12.6984 17.5424C12.6982 16.4237 13.0859 15.3397 13.7953 14.4753C14.5047 13.611 15.4918 13.0199 16.5881 12.8031C17.6844 12.5863 18.8218 12.7571 19.8063 13.2865C20.7908 13.8158 21.5611 14.6708 21.9859 15.7055L20.6747 16.9172L19.6571 15.5593C19.5916 15.4719 19.5082 15.3996 19.4123 15.3473C19.3165 15.295 19.2105 15.2639 19.1016 15.2562C18.9928 15.2484 18.8835 15.2642 18.7812 15.3024C18.6789 15.3406 18.5861 15.4004 18.5089 15.4776L16.5079 17.4807L15.5229 16.4946C15.3892 16.3609 15.2107 16.2816 15.022 16.2722C14.8333 16.2628 14.6479 16.324 14.5017 16.4438L12.7137 17.9081C12.7048 17.7872 12.6984 17.6656 12.6984 17.5424ZM22.3492 17.5424C22.3495 18.6462 21.972 19.7167 21.2797 20.5758C20.5874 21.4349 19.622 22.0307 18.5442 22.2639C17.4665 22.4971 16.3415 22.3538 15.3565 21.8576C14.3715 21.3615 13.5861 20.5426 13.1309 19.5372L14.933 18.0613L15.9692 19.0986C16.1121 19.2416 16.3059 19.322 16.5079 19.322C16.71 19.322 16.9038 19.2416 17.0467 19.0986L18.9651 17.1781L19.9619 18.5085C20.0259 18.5938 20.107 18.6648 20.2001 18.7168C20.2932 18.7688 20.3961 18.8007 20.5023 18.8104C20.6084 18.8201 20.7154 18.8074 20.8164 18.7731C20.9173 18.7388 21.0099 18.6836 21.0883 18.6112L22.3468 17.4481C22.3474 17.4797 22.3492 17.5106 22.3492 17.5424Z" fill="white"/>
<path d="M4.31746 11.1864H12.9524C13.1545 11.1864 13.3482 11.1061 13.4911 10.963C13.634 10.82 13.7143 10.626 13.7143 10.4237C13.7143 10.2214 13.634 10.0274 13.4911 9.88441C13.3482 9.74137 13.1545 9.66102 12.9524 9.66102H4.31746C4.11539 9.66102 3.9216 9.74137 3.77871 9.88441C3.63583 10.0274 3.55556 10.2214 3.55556 10.4237C3.55556 10.626 3.63583 10.82 3.77871 10.963C3.9216 11.1061 4.11539 11.1864 4.31746 11.1864Z" fill="white"/>
<path d="M4.31746 14.7458H10.4127C10.6148 14.7458 10.8086 14.6654 10.9514 14.5224C11.0943 14.3793 11.1746 14.1853 11.1746 13.9831C11.1746 13.7808 11.0943 13.5868 10.9514 13.4437C10.8086 13.3007 10.6148 13.2203 10.4127 13.2203H4.31746C4.11539 13.2203 3.9216 13.3007 3.77871 13.4437C3.63583 13.5868 3.55556 13.7808 3.55556 13.9831C3.55556 14.1853 3.63583 14.3793 3.77871 14.5224C3.9216 14.6654 4.11539 14.7458 4.31746 14.7458Z" fill="white"/>
<path d="M4.31746 18.3051H8.38095C8.58302 18.3051 8.77682 18.2247 8.9197 18.0817C9.06259 17.9387 9.14286 17.7447 9.14286 17.5424C9.14286 17.3401 9.06259 17.1461 8.9197 17.0031C8.77682 16.86 8.58302 16.7797 8.38095 16.7797H4.31746C4.11539 16.7797 3.9216 16.86 3.77871 17.0031C3.63583 17.1461 3.55556 17.3401 3.55556 17.5424C3.55556 17.7447 3.63583 17.9387 3.77871 18.0817C3.9216 18.2247 4.11539 18.3051 4.31746 18.3051Z" fill="white"/>
<path d="M4.31746 21.8644H6.34921C6.55128 21.8644 6.74507 21.7841 6.88795 21.641C7.03084 21.498 7.11111 21.304 7.11111 21.1017C7.11111 20.8994 7.03084 20.7054 6.88795 20.5624C6.74507 20.4193 6.55128 20.339 6.34921 20.339H4.31746C4.11539 20.339 3.9216 20.4193 3.77871 20.5624C3.63583 20.7054 3.55556 20.8994 3.55556 21.1017C3.55556 21.304 3.63583 21.498 3.77871 21.641C3.9216 21.7841 4.11539 21.8644 4.31746 21.8644Z" fill="white"/>
<path d="M13.0159 23.8983H4.31746C4.11539 23.8983 3.9216 23.9787 3.77871 24.1217C3.63583 24.2647 3.55556 24.4587 3.55556 24.661C3.55556 24.8633 3.63583 25.0573 3.77871 25.2003C3.9216 25.3434 4.11539 25.4237 4.31746 25.4237H13.0159C13.2179 25.4237 13.4117 25.3434 13.5546 25.2003C13.6975 25.0573 13.7778 24.8633 13.7778 24.661C13.7778 24.4587 13.6975 24.2647 13.5546 24.1217C13.4117 23.9787 13.2179 23.8983 13.0159 23.8983Z" fill="white"/>
</svg>
