<svg width="33" height="33" viewBox="0 0 33 33" fill="none" xmlns="http://www.w3.org/2000/svg">
<path d="M28.4217 25.0371C28.4214 25.0371 28.4214 25.0371 28.4217 25.0371L23.4238 21.7528C22.2339 20.971 20.6895 21.039 19.5805 21.9214C18.6089 22.6946 17.2146 22.6156 16.3367 21.7377L11.2622 16.6631C10.3846 15.7855 10.3055 14.3909 11.0785 13.4195C11.9612 12.3102 12.0289 10.7656 11.2471 9.57597L7.96279 4.578C7.3885 3.7041 6.49774 3.18116 5.4544 3.10538C4.41106 3.0301 3.45433 3.41884 2.7602 4.20085C-1.08685 8.53287 -0.889716 15.1366 3.20886 19.235L13.7648 29.7914C15.8973 31.9239 18.7079 33 21.5242 33C24.1202 33 26.721 32.0853 28.7991 30.2401C29.5808 29.5457 29.9698 28.5887 29.8943 27.5456C29.8185 26.5025 29.2956 25.6117 28.4217 25.0371ZM27.515 28.7944C23.9472 31.9629 18.5077 31.8003 15.1317 28.4243L4.57572 17.8681C1.19973 14.4921 1.03708 9.05253 4.20562 5.48464C4.47401 5.18226 4.8081 5.02944 5.20062 5.02944C5.23788 5.02944 5.2759 5.03095 5.31467 5.03372C5.75627 5.06569 6.10372 5.26963 6.34693 5.63999L9.63128 10.6377C9.95807 11.1352 9.93214 11.7546 9.56556 12.2156C8.17982 13.9571 8.32156 16.4567 9.89513 18.0303L14.9696 23.1048C16.5431 24.6784 19.0427 24.8201 20.7842 23.4344C21.2452 23.0675 21.8646 23.0418 22.3618 23.3686L27.3597 26.653C27.7298 26.8962 27.9337 27.2437 27.9657 27.6853C27.9979 28.1272 27.8461 28.5003 27.515 28.7944Z" fill="white"/>
<path d="M32.7159 0.282238C32.5273 0.0939116 32.2803 0 32.0333 0C31.7856 0 31.5376 0.094667 31.3488 0.284001L20.5622 11.0984L20.5624 7.60458C20.5624 7.07082 20.1296 6.63802 19.5959 6.63802C19.0618 6.63802 18.6291 7.07082 18.6291 7.60458L18.6288 13.4367C18.6288 13.693 18.7305 13.939 18.912 14.1202C19.0933 14.3015 19.339 14.4035 19.5954 14.4035H25.4276C25.9616 14.4035 26.3944 13.9707 26.3944 13.4367C26.3944 12.9029 25.9616 12.4701 25.4276 12.4701H21.925L32.7176 1.64937C33.0948 1.27121 33.094 0.659144 32.7159 0.282238Z" fill="white"/>
</svg>
