<svg width="240" height="30" viewBox="0 0 240 30" fill="none" xmlns="http://www.w3.org/2000/svg">
<path d="M0 29.2104V0.654776H21.773V7.61792H9.74626V12.2285H18.2058V18.786H9.74626V29.2104H0Z" fill="black"/>
<path d="M44.3232 16.7309C44.8822 16.9112 45.4049 17.2 45.8647 17.5827C46.2658 17.9316 46.6252 18.3311 46.9349 18.7725C47.2222 19.1917 47.4617 19.6455 47.6484 20.1245C47.8267 20.5978 47.9796 21.098 48.1198 21.5848L50.2091 29.1699H40.603L38.692 22.2473C38.5825 21.7447 38.4245 21.2553 38.2206 20.7871C38.0547 20.4207 37.8257 20.0905 37.5454 19.8136C37.2701 19.5638 36.9425 19.3876 36.5899 19.2998C36.1509 19.1955 35.702 19.1456 35.2521 19.1511H34.6661V29.2104H24.8816V0.668297H38.6156C40.2132 0.627962 41.805 0.888902 43.3167 1.43897C44.4684 1.87505 45.5194 2.56642 46.3998 3.46708C47.1498 4.24494 47.7246 5.19239 48.0815 6.23881C48.4081 7.24377 48.5759 8.29906 48.5784 9.36209C48.6029 10.0562 48.5473 10.7509 48.4128 11.4307C48.2415 12.1431 47.9755 12.826 47.6229 13.4589C47.243 14.1137 46.7848 14.7136 46.2597 15.2436C45.7057 15.8078 45.0633 16.2654 44.3614 16.5956L44.3232 16.7309ZM38.8449 9.97052C38.8531 9.65109 38.7977 9.33341 38.6824 9.03824C38.567 8.74308 38.3943 8.47706 38.1754 8.25758C37.9566 8.03809 37.6966 7.87008 37.4124 7.76452C37.1282 7.65895 36.8262 7.61822 36.5262 7.64496H34.6151V12.5259H36.4879C36.8081 12.5432 37.128 12.4883 37.4267 12.3648C37.7253 12.2413 37.9959 12.0519 38.2206 11.8093C38.4377 11.5612 38.6059 11.2695 38.7153 10.9514C38.8247 10.6333 38.8731 10.2952 38.8576 9.957" fill="black"/>
<path d="M81.7284 14.7839C81.7513 16.8118 81.4453 18.8287 80.8239 20.7465C80.2492 22.5182 79.314 24.1338 78.0847 25.4787C76.81 26.8544 75.266 27.916 73.562 28.5885C71.5229 29.3789 69.362 29.755 67.1918 29.6972C65.0431 29.7465 62.9044 29.3705 60.8854 28.5885C59.1873 27.9193 57.651 26.857 56.3881 25.4787C55.1667 24.1323 54.2402 22.5165 53.6745 20.7465C53.0487 18.8295 52.7384 16.8125 52.7572 14.7839C52.7382 12.7684 53.0486 10.7648 53.6745 8.86182C54.2408 7.10808 55.1677 5.51006 56.3881 4.18367C57.6818 2.82312 59.2378 1.77606 60.9491 1.11448C62.9681 0.332412 65.1068 -0.0435688 67.2555 0.00578379C69.4257 -0.0520346 71.5866 0.324076 73.6256 1.11448C75.3201 1.78797 76.8614 2.83389 78.1484 4.18367C79.3763 5.50879 80.3119 7.10658 80.8876 8.86182C81.5091 10.7656 81.8152 12.7692 81.7921 14.7839H81.7284ZM71.3961 14.7839C71.4017 13.7528 71.3379 12.7226 71.205 11.7012C71.1017 10.872 70.8783 10.0647 70.5425 9.30801C70.2492 8.68691 69.8105 8.15617 69.2685 7.76665C68.6774 7.37628 67.9894 7.18316 67.2938 7.2123C66.5604 7.17912 65.8352 7.38687 65.2171 7.80721C64.6614 8.22659 64.2215 8.79612 63.9431 9.45673C63.6211 10.2301 63.4106 11.0506 63.3188 11.8905C63.1994 12.8497 63.1398 13.8163 63.1405 14.7839C63.1364 15.8594 63.196 16.9342 63.3188 18.0018C63.4022 18.8477 63.613 19.674 63.9431 20.449C64.2175 21.0905 64.6597 21.6349 65.2171 22.0174C65.842 22.4172 66.565 22.6102 67.2938 22.5718C68.0063 22.6013 68.7124 22.4186 69.3322 22.0445C69.8883 21.6662 70.3304 21.1266 70.6062 20.4896C70.9275 19.7121 71.1338 18.8866 71.2178 18.0424C71.3308 16.9606 71.3734 15.8719 71.3451 14.7839" fill="black"/>
<path d="M104.164 15.2436V0.668297H113.604V29.2104H103.705L98.0359 19.4485L95.284 14.216H95.0547V29.2104H85.6142V0.668297H95.5133L101.374 10.5519L103.858 15.2436H104.164Z" fill="black"/>
<path d="M124.434 29.2104V7.79369H116.127V0.654776H142.474V7.79369H134.129V29.2104H124.434Z" fill="black"/>
<path d="M144.958 29.2104V0.654776H154.692V22.2473H167.394V29.2104H144.958Z" fill="black"/>
<path d="M180.083 0.668297H170.375V29.2104H180.083V0.668297Z" fill="black"/>
<path d="M203.525 15.2436V0.668297H212.953V29.2104H203.053L197.397 19.4485L194.632 14.216H194.403V29.2104H184.975V0.668297H194.874L200.735 10.5519L203.219 15.2436H203.525Z" fill="black"/>
<path d="M217.577 29.2104V0.654776H239.541V7.61792H227.387V11.2009H237.554V17.799H227.387V22.2473H240V29.2104H217.577Z" fill="black"/>
</svg>
