<svg width="133" height="17" viewBox="0 0 133 17" fill="none" xmlns="http://www.w3.org/2000/svg">
<path d="M0.829712 16.0201V0.359104H12.7708V4.17795H6.17492V6.70655H10.8144V10.3029H6.17492V16.0201H0.829712Z" fill="black"/>
<path d="M25.1382 9.17583C25.4448 9.27475 25.7315 9.43315 25.9837 9.64299C26.2036 9.83434 26.4007 10.0535 26.5706 10.2955C26.7282 10.5254 26.8595 10.7743 26.9619 11.0371C27.0597 11.2966 27.1435 11.571 27.2204 11.8379L28.3663 15.9979H23.0979L22.0499 12.2012C21.9898 11.9256 21.9032 11.6572 21.7913 11.4004C21.7003 11.1995 21.5747 11.0184 21.421 10.8665C21.27 10.7295 21.0903 10.6329 20.897 10.5847C20.6562 10.5275 20.41 10.5002 20.1633 10.5032H19.8419V16.0201H14.4757V0.366519H22.0079C22.8842 0.344398 23.7571 0.487507 24.5862 0.789188C25.2179 1.02835 25.7943 1.40752 26.2771 1.90147C26.6884 2.32809 27.0037 2.8477 27.1994 3.4216C27.3785 3.97276 27.4706 4.55152 27.4719 5.13452C27.4854 5.51521 27.4548 5.89622 27.3811 6.26905C27.2872 6.65975 27.1413 7.03427 26.9479 7.38134C26.7395 7.74048 26.4882 8.06949 26.2003 8.36015C25.8964 8.6696 25.5441 8.92053 25.1592 9.10168L25.1382 9.17583ZM22.1337 5.46821C22.1382 5.29302 22.1078 5.11879 22.0446 4.95691C21.9813 4.79503 21.8866 4.64914 21.7666 4.52876C21.6465 4.40839 21.5039 4.31625 21.3481 4.25835C21.1922 4.20046 21.0266 4.17811 20.862 4.19278H19.814V6.86969H20.8411C21.0166 6.87917 21.1921 6.84905 21.3559 6.78131C21.5197 6.71356 21.6681 6.60974 21.7913 6.47668C21.9104 6.34058 22.0026 6.1806 22.0626 6.00615C22.1226 5.8317 22.1492 5.64628 22.1407 5.46079" fill="black"/>
<path d="M45.6526 8.10803C45.6652 9.2202 45.4974 10.3264 45.1565 11.3782C44.8414 12.3498 44.3285 13.2359 43.6543 13.9735C42.9552 14.728 42.1084 15.3102 41.1738 15.679C40.0556 16.1125 38.8704 16.3188 37.6802 16.287C36.5018 16.3141 35.3289 16.1079 34.2216 15.679C33.2902 15.312 32.4477 14.7294 31.7551 13.9735C31.0852 13.235 30.5771 12.3489 30.2668 11.3782C29.9236 10.3268 29.7534 9.22063 29.7637 8.10803C29.7533 7.00269 29.9235 5.9038 30.2668 4.86016C30.5774 3.89834 31.0858 3.02193 31.7551 2.29448C32.4646 1.54831 33.318 0.974059 34.2565 0.611222C35.3638 0.182307 36.5367 -0.0238948 37.7152 0.00317205C38.9053 -0.0285377 40.0905 0.177735 41.2088 0.611222C42.1381 0.980592 42.9834 1.55421 43.6892 2.29448C44.3627 3.02123 44.8758 3.89752 45.1915 4.86016C45.5324 5.90425 45.7002 7.00312 45.6876 8.10803H45.6526ZM39.986 8.10803C39.9891 7.54254 39.9541 6.97754 39.8812 6.41736C39.8246 5.9626 39.702 5.51986 39.5179 5.10486C39.357 4.76423 39.1164 4.47315 38.8192 4.25952C38.495 4.04543 38.1177 3.93952 37.7361 3.9555C37.3339 3.9373 36.9362 4.05124 36.5972 4.28177C36.2924 4.51177 36.0512 4.82412 35.8985 5.18643C35.7219 5.61058 35.6065 6.06054 35.5561 6.52117C35.4906 7.04726 35.458 7.57737 35.4583 8.10803C35.4561 8.6979 35.4887 9.28734 35.5561 9.87286C35.6019 10.3368 35.7175 10.7899 35.8985 11.215C36.049 11.5668 36.2915 11.8654 36.5972 12.0752C36.9399 12.2945 37.3365 12.4003 37.7361 12.3792C38.1269 12.3954 38.5142 12.2952 38.8541 12.09C39.1591 11.8825 39.4016 11.5866 39.5528 11.2373C39.729 10.8109 39.8422 10.3581 39.8882 9.89511C39.9502 9.30183 39.9736 8.70472 39.9581 8.10803" fill="black"/>
<path d="M57.9571 8.36015V0.366519H63.1346V16.0201H57.7056L54.5963 10.6663L53.087 7.79659H52.9613V16.0201H47.7837V0.366519H53.2128L56.4269 5.78706L57.7894 8.36015H57.9571Z" fill="black"/>
<path d="M69.0738 16.0201V4.27435H64.5181V0.359104H78.9676V4.27435H74.391V16.0201H69.0738Z" fill="black"/>
<path d="M80.3301 16.0201V0.359104H85.6684V12.2012H92.6346V16.0201H80.3301Z" fill="black"/>
<path d="M99.5939 0.366519H94.2696V16.0201H99.5939V0.366519Z" fill="black"/>
<path d="M112.45 8.36015V0.366519H117.621V16.0201H112.192L109.089 10.6663L107.573 7.79659H107.447V16.0201H102.277V0.366519H107.706L110.92 5.78706L112.283 8.36015H112.45Z" fill="black"/>
<path d="M120.157 16.0201V0.359104H132.203V4.17795H125.537V6.14299H131.113V9.76163H125.537V12.2012H132.455V16.0201H120.157Z" fill="black"/>
</svg>
