<svg width="221" height="281" viewBox="0 0 221 281" fill="none" xmlns="http://www.w3.org/2000/svg">
<path d="M192.786 36.8162H167.365V25.4434C167.365 21.7639 163.351 20.0916 159.671 20.0916H139.936C135.253 6.71163 123.546 0.0216582 110.166 0.0216582C96.9332 -0.475816 84.8971 7.63807 80.3955 20.0916H60.9947C57.3152 20.0916 53.6357 21.7639 53.6357 25.4434V36.8162H28.2132C13.1482 36.9769 0.823351 48.8612 0.115234 63.9103V255.578C0.115234 270.296 13.4952 280.999 28.2132 280.999H192.786C207.504 280.999 220.884 270.296 220.884 255.578V63.9109C220.176 48.8612 207.851 36.9769 192.786 36.8162ZM67.015 33.4715H85.4125C88.624 33.0797 91.2036 30.6365 91.7683 27.4506C93.7492 18.8239 101.318 12.6314 110.166 12.3983C118.932 12.664 126.387 18.8757 128.229 27.4506C128.829 30.7466 131.578 33.2212 134.919 33.4715H153.985V60.2314H67.015V33.4715ZM207.504 255.578C207.504 262.937 200.145 267.62 192.786 267.62H28.2132C20.8542 267.62 13.4952 262.937 13.4952 255.578V63.9109C14.1777 56.251 20.5238 50.337 28.2132 50.1968H53.635V67.2562C53.9884 71.0043 57.2345 73.8079 60.9941 73.612H159.671C163.499 73.8214 166.847 71.0561 167.364 67.2562V50.1961H192.786C200.474 50.337 206.821 56.2503 207.504 63.9103L207.504 255.578Z" fill="white"/>
<path d="M84.7435 149.542C82.2344 146.898 78.0689 146.748 75.3773 149.208L53.9692 169.612L44.9379 160.246C42.4287 157.601 38.2633 157.453 35.5716 159.912C32.9806 162.627 32.9806 166.898 35.5716 169.612L49.2858 183.661C50.4728 184.991 52.1874 185.726 53.9686 185.669C55.7331 185.644 57.4163 184.922 58.6514 183.661L84.7422 158.909C87.3288 156.536 87.5017 152.515 85.1283 149.929C85.0066 149.794 84.878 149.665 84.7435 149.542Z" fill="white"/>
<path d="M180.745 163.926H103.81C100.115 163.926 97.1203 166.921 97.1203 170.616C97.1203 174.311 100.115 177.306 103.81 177.306H180.745C184.439 177.306 187.435 174.311 187.435 170.616C187.435 166.921 184.439 163.926 180.745 163.926Z" fill="white"/>
<path d="M84.7435 96.0227C82.2344 93.3778 78.0689 93.2286 75.3773 95.6885L53.9692 116.093L44.9379 106.726C42.4287 104.082 38.2633 103.932 35.5716 106.392C32.9806 109.107 32.9806 113.378 35.5716 116.093L49.2858 130.142C50.4728 131.471 52.1874 132.206 53.9686 132.149C55.7331 132.124 57.4163 131.402 58.6514 130.142L84.7422 105.389C87.3288 103.016 87.5017 98.9954 85.1283 96.4094C85.0066 96.2743 84.878 96.1456 84.7435 96.0227Z" fill="white"/>
<path d="M180.745 110.406H103.81C100.115 110.406 97.1203 113.401 97.1203 117.096C97.1203 120.791 100.115 123.786 103.81 123.786H180.745C184.439 123.786 187.435 120.791 187.435 117.096C187.435 113.401 184.439 110.406 180.745 110.406Z" fill="white"/>
<path d="M84.7435 203.062C82.2344 200.417 78.0689 200.268 75.3773 202.727L53.9692 223.132L44.9379 213.765C42.4287 211.12 38.2633 210.972 35.5716 213.431C32.9806 216.146 32.9806 220.417 35.5716 223.132L49.2858 237.181C50.4728 238.51 52.1874 239.245 53.9686 239.188C55.7331 239.163 57.4163 238.441 58.6514 237.181L84.7422 212.428C87.3288 210.055 87.5017 206.034 85.1283 203.448C85.0066 203.314 84.878 203.185 84.7435 203.062Z" fill="white"/>
<path d="M180.745 217.445H103.81C100.115 217.445 97.1203 220.441 97.1203 224.135C97.1203 227.83 100.115 230.825 103.81 230.825H180.745C184.439 230.825 187.435 227.83 187.435 224.135C187.435 220.441 184.439 217.445 180.745 217.445Z" fill="white"/>
</svg>
