<svg width="1440" height="1118" viewBox="0 0 1440 1118" fill="none" xmlns="http://www.w3.org/2000/svg">
<g opacity="0.8">
<g opacity="0.3">
<path d="M1745 488.477L1329.56 68.1051V205.27L1745 870.168" stroke="#231F20" stroke-width="0.25"/>
<path d="M1265.87 68.1035L1008.75 1.0002V205.268L1128.03 68.1035H1265.87Z" stroke="#231F20" stroke-width="0.25"/>
<path d="M1107.15 202.933V92.9365L1128.03 68.1036H1252.64H1329.61V205.268L1107.15 202.933Z" stroke="#231F20" stroke-width="0.25"/>
<path d="M987.867 205.268L467.599 1117H407.492L979.44 205.268H987.867Z" stroke="#231F20" stroke-width="0.25"/>
<path d="M781.38 68.882L808.78 1.70109V205.268L781.38 152.411V68.882Z" stroke="#231F20" stroke-width="0.25"/>
<path d="M781.38 152.411L808.78 205.269H917.168L781.38 252.833V152.411Z" stroke="#231F20" stroke-width="0.25"/>
<path d="M1008.77 205.268H808.78V1.0002H1008.77V205.268Z" stroke="#231F20" stroke-width="0.25"/>
<path d="M875.405 1117H467.6L987.867 205.268H1008.75L1106.89 92.5476V205.268L875.405 1117Z" stroke="#231F20" stroke-width="0.25"/>
<path d="M452.212 252.911L306.88 173.274H390.755L452.212 67.949V252.911Z" stroke="#231F20" stroke-width="0.25"/>
<path d="M452.212 67.9484L390.755 173.274V1.00078L507.756 67.9484H452.212Z" stroke="#231F20" stroke-width="0.25"/>
<path d="M781.403 252.911H452.212V67.949H781.403V252.911Z" stroke="#231F20" stroke-width="0.25"/>
<path d="M390.755 173.197H200.401V1.00131H390.755V173.197Z" stroke="#231F20" stroke-width="0.25"/>
<path d="M-175 203.478V99.7868H142.901L200.284 172.495V99.7868H200.401V173.195L306.833 173.273L362.121 203.478H-175Z" stroke="#231F20" stroke-width="0.25"/>
<path d="M142.878 99.3977H2.22461L200.284 1.00041V172.495L142.878 99.3977Z" stroke="#231F20" stroke-width="0.25"/>
</g>
</g>
</svg>
