<svg width="1440" height="735" viewBox="0 0 1440 735" fill="none" xmlns="http://www.w3.org/2000/svg">
<g opacity="0.8">
<g opacity="0.3">
<path d="M1680 321.179L1264.56 45.0751V135.166L1680 571.878" stroke="#231F20" stroke-width="0.25"/>
<path d="M1200.87 45.074L943.748 0.999843V135.165L1063.03 45.074H1200.87Z" stroke="#231F20" stroke-width="0.25"/>
<path d="M1042.15 133.631V61.3845L1063.03 45.0741H1187.64H1264.61V135.165L1042.15 133.631Z" stroke="#231F20" stroke-width="0.25"/>
<path d="M922.866 135.165L402.599 734H342.492L914.439 135.165H922.866Z" stroke="#231F20" stroke-width="0.25"/>
<path d="M716.38 45.5853L743.78 1.46022V135.165L716.38 100.448V45.5853Z" stroke="#231F20" stroke-width="0.25"/>
<path d="M716.38 100.448L743.78 135.166H852.168L716.38 166.406V100.448Z" stroke="#231F20" stroke-width="0.25"/>
<path d="M943.771 135.165H743.779V0.999847H943.771V135.165Z" stroke="#231F20" stroke-width="0.25"/>
<path d="M810.405 734H402.6L922.867 135.165H943.748L1041.89 61.1292V135.165L810.405 734Z" stroke="#231F20" stroke-width="0.25"/>
<path d="M387.212 166.457L241.88 114.151H325.755L387.212 44.9724V166.457Z" stroke="#231F20" stroke-width="0.25"/>
<path d="M387.212 44.9722L325.755 114.151V1.00039L442.756 44.9722H387.212Z" stroke="#231F20" stroke-width="0.25"/>
<path d="M716.403 166.457H387.212V44.9724H716.403V166.457Z" stroke="#231F20" stroke-width="0.25"/>
<path d="M325.754 114.1H135.4V1.00068H325.754V114.1Z" stroke="#231F20" stroke-width="0.25"/>
<path d="M-240 133.989V65.884H77.901L135.284 113.639V65.884H135.401V114.1L241.833 114.151L297.121 133.989H-240Z" stroke="#231F20" stroke-width="0.25"/>
<path d="M77.8776 65.6283H-62.7754L135.284 0.999973V113.639L77.8776 65.6283Z" stroke="#231F20" stroke-width="0.25"/>
</g>
</g>
</svg>
