<svg width="1440" height="795" viewBox="0 0 1440 795" fill="none" xmlns="http://www.w3.org/2000/svg">
<g opacity="0.8">
<g opacity="0.3">
<path d="M1640 347.388L1224.56 48.6829V146.148L1640 618.608" stroke="#231F20" stroke-width="0.25"/>
<path d="M1160.87 48.682L903.748 1.00012V146.147L1023.03 48.682H1160.87Z" stroke="#231F20" stroke-width="0.25"/>
<path d="M1002.15 144.488V66.3276L1023.03 48.6821H1147.64H1224.61V146.147L1002.15 144.488Z" stroke="#231F20" stroke-width="0.25"/>
<path d="M882.867 146.148L362.6 794H302.493L874.44 146.148H882.867Z" stroke="#231F20" stroke-width="0.25"/>
<path d="M676.38 49.2352L703.78 1.49819V146.147L676.38 108.588V49.2352Z" stroke="#231F20" stroke-width="0.25"/>
<path d="M676.38 108.589L703.78 146.148H812.168L676.38 179.946V108.589Z" stroke="#231F20" stroke-width="0.25"/>
<path d="M903.772 146.147H703.78V1.00012H903.772V146.147Z" stroke="#231F20" stroke-width="0.25"/>
<path d="M770.405 794H362.6L882.867 146.148H903.748L1001.89 66.0512V146.148L770.405 794Z" stroke="#231F20" stroke-width="0.25"/>
<path d="M347.212 180.001L201.88 123.413H285.755L347.212 48.572V180.001Z" stroke="#231F20" stroke-width="0.25"/>
<path d="M347.212 48.5718L285.755 123.413V1.00061L402.756 48.5718H347.212Z" stroke="#231F20" stroke-width="0.25"/>
<path d="M676.403 180.001H347.212V48.5719H676.403V180.001Z" stroke="#231F20" stroke-width="0.25"/>
<path d="M285.755 123.358H95.4009V1.00103H285.755V123.358Z" stroke="#231F20" stroke-width="0.25"/>
<path d="M-280 144.875V71.1953H37.901L95.2843 122.86V71.1953H95.4007V123.358L201.833 123.413L257.121 144.875H-280Z" stroke="#231F20" stroke-width="0.25"/>
<path d="M37.8776 70.9188H-102.775L95.2841 1.00029V122.86L37.8776 70.9188Z" stroke="#231F20" stroke-width="0.25"/>
</g>
</g>
</svg>
