<svg width="1440" height="2430" viewBox="0 0 1440 2430" fill="none" xmlns="http://www.w3.org/2000/svg">
<g opacity="0.8">
<g opacity="0.3">
<path d="M1753 1061.57L1337.56 146.996V445.414L1753 1891.99" stroke="#231F20" stroke-width="0.25"/>
<path d="M1273.87 146.992L1016.75 1.00037V445.411L1136.03 146.992H1273.87Z" stroke="#231F20" stroke-width="0.25"/>
<path d="M1115.15 440.33V201.02L1136.03 146.993H1260.64H1337.61V445.411L1115.15 440.33Z" stroke="#231F20" stroke-width="0.25"/>
<path d="M995.867 445.412L475.6 2429H415.493L987.44 445.412H995.867Z" stroke="#231F20" stroke-width="0.25"/>
<path d="M789.38 148.686L816.78 2.52529V445.411L789.38 330.413V148.686Z" stroke="#231F20" stroke-width="0.25"/>
<path d="M789.38 330.414L816.78 445.412H925.168L789.38 548.894V330.414Z" stroke="#231F20" stroke-width="0.25"/>
<path d="M1016.77 445.411H816.78V1.00037H1016.77V445.411Z" stroke="#231F20" stroke-width="0.25"/>
<path d="M883.405 2429H475.6L995.867 445.412H1016.75L1114.89 200.173V445.412L883.405 2429Z" stroke="#231F20" stroke-width="0.25"/>
<path d="M460.212 549.064L314.88 375.805H398.755L460.212 146.656V549.064Z" stroke="#231F20" stroke-width="0.25"/>
<path d="M460.212 146.655L398.755 375.804V1.00157L515.756 146.655H460.212Z" stroke="#231F20" stroke-width="0.25"/>
<path d="M789.403 549.064H460.212V146.656H789.403V549.064Z" stroke="#231F20" stroke-width="0.25"/>
<path d="M398.755 375.635H208.401V1.0029H398.755V375.635Z" stroke="#231F20" stroke-width="0.25"/>
<path d="M-167 441.516V215.923H150.901L208.284 374.109V215.923H208.401V375.633L314.833 375.803L370.121 441.516H-167Z" stroke="#231F20" stroke-width="0.25"/>
<path d="M150.878 215.077H10.2246L208.284 1.00085V374.109L150.878 215.077Z" stroke="#231F20" stroke-width="0.25"/>
</g>
</g>
</svg>
