<svg width="1920" height="786" viewBox="0 0 1920 786" fill="none" xmlns="http://www.w3.org/2000/svg">
<g opacity="0.2">
<path d="M1504.56 49.0816L1919.6 338.337L1633.97 367.612L1504.56 145.318V49.0816Z" stroke="white" stroke-width="1.25"/>
<path d="M1440.87 49.0807L1183.75 2.00014V145.317L1303.03 49.0807H1440.87Z" stroke="white" stroke-width="1.25"/>
<path d="M1282.15 143.679V66.5042L1303.03 49.0812H1427.64H1504.61V145.317L1282.15 143.679Z" stroke="white" stroke-width="1.25"/>
<path d="M1162.87 145.317L642.599 785H582.492L1154.44 145.317H1162.87Z" stroke="white" stroke-width="1.25"/>
<path d="M956.38 49.6269L983.78 2.49184V145.317L956.38 108.232V49.6269Z" stroke="white" stroke-width="1.25"/>
<path d="M956.38 108.233L983.78 145.318H1092.17L956.38 178.689V108.233Z" stroke="white" stroke-width="1.25"/>
<path d="M1183.77 145.317H983.78V2.00014H1183.77V145.317Z" stroke="white" stroke-width="1.25"/>
<path d="M1050.4 785H642.6L1162.87 145.317H1183.75L1281.89 66.231V145.317L1050.4 785Z" stroke="white" stroke-width="1.25"/>
<path d="M627.212 178.744L481.88 122.87H565.755L627.212 48.9727V178.744Z" stroke="white" stroke-width="1.25"/>
<path d="M627.212 48.972L565.755 122.87V2.00056L682.756 48.972H627.212Z" stroke="white" stroke-width="1.25"/>
<path d="M956.403 178.744H627.212V48.9727H956.403V178.744Z" stroke="white" stroke-width="1.25"/>
<path d="M565.755 122.815H375.401V2.00046H565.755V122.815Z" stroke="white" stroke-width="1.25"/>
<path d="M0 144.061V71.3097H317.901L375.284 122.323V71.3097H375.401V122.815L481.833 122.869L537.121 144.061H0Z" stroke="white" stroke-width="1.25"/>
<path d="M317.878 71.037H177.225L375.284 2.00037V122.323L317.878 71.037Z" stroke="white" stroke-width="1.25"/>
</g>
</svg>
