<svg width="1920" height="1037" viewBox="0 0 1920 1037" fill="none" xmlns="http://www.w3.org/2000/svg">
<g opacity="0.8">
<g opacity="0.3">
<path d="M1920 453.095L1504.56 63.2345V190.443L1920 807.083" stroke="#231F20" stroke-width="0.25"/>
<path d="M1440.87 63.233L1183.75 1.00012V190.442L1303.03 63.233H1440.87Z" stroke="#231F20" stroke-width="0.25"/>
<path d="M1282.15 188.276V86.2635L1303.03 63.2331H1427.64H1504.61V190.442L1282.15 188.276Z" stroke="#231F20" stroke-width="0.25"/>
<path d="M1162.87 190.442L642.599 1036H582.492L1154.44 190.442H1162.87Z" stroke="#231F20" stroke-width="0.25"/>
<path d="M956.38 63.955L983.78 1.65014V190.442L956.38 141.421V63.955Z" stroke="#231F20" stroke-width="0.25"/>
<path d="M956.38 141.421L983.78 190.442H1092.17L956.38 234.554V141.421Z" stroke="#231F20" stroke-width="0.25"/>
<path d="M1183.77 190.442H983.78V1.00012H1183.77V190.442Z" stroke="#231F20" stroke-width="0.25"/>
<path d="M1050.4 1036H642.6L1162.87 190.442H1183.75L1281.89 85.9029V190.442L1050.4 1036Z" stroke="#231F20" stroke-width="0.25"/>
<path d="M627.212 234.627L481.88 160.77H565.755L627.212 63.0896V234.627Z" stroke="#231F20" stroke-width="0.25"/>
<path d="M627.212 63.0891L565.755 160.77V1.00073L682.756 63.0891H627.212Z" stroke="#231F20" stroke-width="0.25"/>
<path d="M956.403 234.627H627.212V63.0896H956.403V234.627Z" stroke="#231F20" stroke-width="0.25"/>
<path d="M565.755 160.698H375.401V1.00124H565.755V160.698Z" stroke="#231F20" stroke-width="0.25"/>
<path d="M0 188.781V92.6168H317.901L375.284 160.048V92.6168H375.401V160.697L481.833 160.77L537.121 188.781H0Z" stroke="#231F20" stroke-width="0.25"/>
<path d="M317.878 92.2557H177.225L375.284 1.00027V160.048L317.878 92.2557Z" stroke="#231F20" stroke-width="0.25"/>
</g>
</g>
</svg>
