<?xml version="1.0" encoding="utf-8"?><svg xmlns="http://www.w3.org/2000/svg" xmlns:xlink="http://www.w3.org/1999/xlink"><symbol viewBox="0 0 10 16" id="arrow-l-sm" xmlns="http://www.w3.org/2000/svg"><path d="M.293 7.293a1 1 0 000 1.414l6.364 6.364a1 1 0 001.414-1.414L2.414 8l5.657-5.657A1 1 0 006.657.93L.293 7.293zM10 7H1v2h9V7z"/></symbol><symbol viewBox="0 0 21 16" id="arrow-left" xmlns="http://www.w3.org/2000/svg"><path d="M.293 7.293a1 1 0 000 1.414l6.364 6.364a1 1 0 001.414-1.414L2.414 8l5.657-5.657A1 1 0 006.657.93L.293 7.293zM21 7H1v2h20V7z"/></symbol><symbol viewBox="0 0 10 16" id="arrow-r-sm" xmlns="http://www.w3.org/2000/svg"><path d="M9.707 7.293a1 1 0 010 1.414l-6.364 6.364a1 1 0 01-1.414-1.414L7.586 8 1.929 2.343A1 1 0 013.343.93l6.364 6.364zM0 7h9v2H0V7z"/></symbol><symbol viewBox="0 0 21 16" id="arrow-right" xmlns="http://www.w3.org/2000/svg"><path d="M20.707 8.707a1 1 0 000-1.414L14.343.929a1 1 0 10-1.414 1.414L18.586 8l-5.657 5.657a1 1 0 001.414 1.414l6.364-6.364zM0 9h20V7H0v2z"/></symbol><symbol viewBox="0 0 16 16" id="burger-all" xmlns="http://www.w3.org/2000/svg"><path d="M0 0h16v2.286H0V0zm0 6.857h16v2.286H0V6.857zm0 6.857h16V16H0v-2.286z"/></symbol><symbol viewBox="0 0 26 26" id="zoom" xmlns="http://www.w3.org/2000/svg"><path d="M15.726 6.97a6.191 6.191 0 11-8.756 8.756 6.191 6.191 0 018.756-8.756zm1.334 9.188a7.468 7.468 0 10-.902.902l3.362 3.362a.638.638 0 10.902-.902l-3.362-3.362z"/></symbol></svg>