<?xml version="1.0" encoding="utf-8"?><svg xmlns="http://www.w3.org/2000/svg" xmlns:xlink="http://www.w3.org/1999/xlink"><symbol viewBox="0 0 10 16" id="arrow-l-sm" xmlns="http://www.w3.org/2000/svg"><path d="M.293 7.293a1 1 0 000 1.414l6.364 6.364a1 1 0 001.414-1.414L2.414 8l5.657-5.657A1 1 0 006.657.93L.293 7.293zM10 7H1v2h9V7z"/></symbol><symbol viewBox="0 0 21 16" id="arrow-left" xmlns="http://www.w3.org/2000/svg"><path d="M.293 7.293a1 1 0 000 1.414l6.364 6.364a1 1 0 001.414-1.414L2.414 8l5.657-5.657A1 1 0 006.657.93L.293 7.293zM21 7H1v2h20V7z"/></symbol><symbol viewBox="0 0 10 16" id="arrow-r-sm" xmlns="http://www.w3.org/2000/svg"><path d="M9.707 7.293a1 1 0 010 1.414l-6.364 6.364a1 1 0 01-1.414-1.414L7.586 8 1.929 2.343A1 1 0 013.343.93l6.364 6.364zM0 7h9v2H0V7z"/></symbol><symbol viewBox="0 0 21 16" id="arrow-right" xmlns="http://www.w3.org/2000/svg"><path d="M20.707 8.707a1 1 0 000-1.414L14.343.929a1 1 0 10-1.414 1.414L18.586 8l-5.657 5.657a1 1 0 001.414 1.414l6.364-6.364zM0 9h20V7H0v2z"/></symbol><symbol viewBox="0 0 16 16" id="burger-all" xmlns="http://www.w3.org/2000/svg"><path d="M0 0h16v2.286H0V0zm0 6.857h16v2.286H0V6.857zm0 6.857h16V16H0v-2.286z"/></symbol><symbol viewBox="0 0 16 10" id="chevron-down" xmlns="http://www.w3.org/2000/svg"><path d="M14.768 1.253L7.884 8.506 1 1.253"/></symbol><symbol viewBox="0 0 25 25" id="clock" xmlns="http://www.w3.org/2000/svg"><path d="M23.09 7.337C21.822 4.381 19.666 2.231 16.686.96A11.82 11.82 0 0012.005 0c-1.63 0-3.18.321-4.668.96-2.956 1.268-5.12 3.416-6.39 6.377A11.702 11.702 0 000 12.005c0 1.63.31 3.197.947 4.681 1.27 2.961 3.434 5.122 6.39 6.39 1.489.639 3.038.96 4.668.96 1.63 0 3.191-.324 4.68-.96 2.982-1.27 5.136-3.434 6.405-6.39.638-1.488.96-3.05.96-4.681 0-1.63-.322-3.18-.96-4.668zm-1.92 9.98a10.55 10.55 0 01-3.866 3.853 10.357 10.357 0 01-5.299 1.42c-1.433 0-2.8-.276-4.102-.842C6.6 21.183 5.477 20.44 4.536 19.5c-.94-.94-1.688-2.075-2.248-3.38a10.352 10.352 0 01-.828-4.115c0-1.907.468-3.671 1.407-5.286a10.555 10.555 0 013.852-3.852c1.617-.947 3.38-1.42 5.286-1.42 1.907 0 3.68.476 5.299 1.42a10.582 10.582 0 013.866 3.852 10.287 10.287 0 011.42 5.286c0 1.907-.47 3.683-1.42 5.312z"/><path d="M12.768 11.9V5.09c0-.408-.355-.736-.763-.736a.741.741 0 00-.723.736v6.916c0 .013.026.066.026.105a.687.687 0 00.198.592l3.931 3.932c.263.263.75.263 1.013 0a.71.71 0 000-1.026L12.768 11.9z"/></symbol><symbol viewBox="0 0 17 25" id="location" xmlns="http://www.w3.org/2000/svg"><path d="M8.456 0C3.793 0 0 3.793 0 8.456c0 1.575.436 3.112 1.262 4.446L7.974 23.72a.705.705 0 00.6.333h.005a.704.704 0 00.599-.343l6.54-10.921a8.446 8.446 0 001.194-4.332C16.912 3.793 13.117 0 8.456 0zm6.053 12.064l-5.947 9.93L2.46 12.16A7.038 7.038 0 011.4 8.456C1.4 4.57 4.57 1.4 8.456 1.4c3.885 0 7.05 3.17 7.05 7.056a7.04 7.04 0 01-.997 3.608z"/><path d="M8.456 4.228A4.233 4.233 0 004.23 8.455a4.222 4.222 0 004.227 4.228 4.22 4.22 0 004.228-4.228 4.233 4.233 0 00-4.228-4.227zm0 7.055a2.83 2.83 0 01-2.828-2.828 2.838 2.838 0 012.828-2.828 2.834 2.834 0 012.824 2.828 2.825 2.825 0 01-2.824 2.828z"/></symbol><symbol viewBox="0 0 28 21" id="mail" xmlns="http://www.w3.org/2000/svg"><path d="M23.79 0H3.315A3.317 3.317 0 000 3.314v13.995a3.317 3.317 0 003.314 3.314h20.471a3.317 3.317 0 003.314-3.314V3.319A3.313 3.313 0 0023.79 0zm1.8 17.309c0 .992-.807 1.8-1.8 1.8H3.315c-.993 0-1.8-.808-1.8-1.8V3.319c0-.992.807-1.8 1.8-1.8h20.471c.992 0 1.8.808 1.8 1.8v13.99h.005z"/><path d="M17.09 10.138l6.628-5.944a.76.76 0 00.056-1.07.76.76 0 00-1.07-.057l-9.14 8.203-1.783-1.592c-.006-.006-.011-.011-.011-.017a1.122 1.122 0 00-.124-.107L4.391 3.061a.756.756 0 00-1.071.062.756.756 0 00.061 1.071l6.706 5.994L3.41 16.44a.76.76 0 001.038 1.11l6.779-6.341 1.839 1.642a.757.757 0 001.009-.005l1.89-1.694 6.74 6.404a.756.756 0 101.043-1.099l-6.657-6.32z"/></symbol><symbol viewBox="0 0 23 23" id="tel" xmlns="http://www.w3.org/2000/svg"><path d="M17.575 13.788c-.456-.475-1.006-.729-1.588-.729-.578 0-1.133.25-1.607.724l-1.484 1.48c-.123-.066-.245-.127-.362-.188a5.934 5.934 0 01-.465-.25c-1.39-.882-2.654-2.033-3.866-3.522-.588-.743-.982-1.368-1.269-2.002.385-.352.742-.718 1.09-1.07.132-.132.263-.269.395-.4.986-.987.986-2.264 0-3.25L7.136 3.297A19.583 19.583 0 016.7 2.85a22.176 22.176 0 00-.883-.873c-.455-.451-1-.69-1.573-.69-.574 0-1.128.239-1.598.69l-.01.01-1.596 1.61A3.437 3.437 0 00.02 5.782c-.112 1.371.292 2.65.602 3.485.76 2.053 1.897 3.956 3.593 5.995 2.058 2.457 4.534 4.397 7.362 5.764 1.08.512 2.522 1.118 4.133 1.221.1.005.203.01.296.01 1.086 0 1.997-.39 2.711-1.166.005-.009.014-.014.019-.023.244-.296.526-.564.822-.85.202-.193.409-.395.61-.606.466-.484.71-1.048.71-1.626 0-.582-.25-1.141-.723-1.611l-2.58-2.588zm1.681 4.946c-.005 0-.005.005 0 0-.183.197-.37.376-.573.573a12.71 12.71 0 00-.907.94c-.474.507-1.033.747-1.766.747-.07 0-.146 0-.216-.005-1.395-.09-2.692-.634-3.664-1.1a20.866 20.866 0 01-6.934-5.43c-1.602-1.93-2.673-3.716-3.382-5.632-.437-1.17-.597-2.081-.526-2.94.047-.55.258-1.006.648-1.396l1.602-1.602c.23-.216.474-.334.714-.334.296 0 .535.179.686.33l.014.013c.286.268.559.545.845.841.146.15.296.3.447.456l1.282 1.282c.498.498.498.959 0 1.457-.136.136-.268.272-.404.404-.394.404-.77.78-1.179 1.146-.01.01-.019.014-.023.023-.404.404-.33.799-.245 1.067l.014.042c.334.808.804 1.57 1.518 2.476l.004.004c1.297 1.598 2.664 2.842 4.172 3.796.193.122.39.22.578.315.169.084.329.164.465.249.019.01.037.023.056.033.16.08.31.117.465.117.39 0 .635-.244.714-.324l1.607-1.607c.16-.16.413-.352.71-.352.29 0 .53.183.676.343l.01.01 2.587 2.588c.484.479.484.972.005 1.47zm-7.244-13.44c1.231.207 2.35.79 3.242 1.682a5.988 5.988 0 011.681 3.241.63.63 0 00.625.526.635.635 0 00.63-.742 7.245 7.245 0 00-2.034-3.922 7.245 7.245 0 00-3.923-2.034.637.637 0 00-.733.516.627.627 0 00.512.733zm10.204 4.524a11.92 11.92 0 00-3.35-6.459A11.92 11.92 0 0012.407.01a.632.632 0 00-.728.517.637.637 0 00.521.733c2.19.371 4.186 1.41 5.774 2.993a10.642 10.642 0 012.992 5.773.63.63 0 00.625.526c.038 0 .07-.005.108-.01a.623.623 0 00.517-.723z"/></symbol><symbol viewBox="0 0 26 26" id="zoom" xmlns="http://www.w3.org/2000/svg"><path d="M15.726 6.97a6.191 6.191 0 11-8.756 8.756 6.191 6.191 0 018.756-8.756zm1.334 9.188a7.468 7.468 0 10-.902.902l3.362 3.362a.638.638 0 10.902-.902l-3.362-3.362z"/></symbol></svg>