<svg width="25" height="25" viewBox="0 0 25 25" fill="none" xmlns="http://www.w3.org/2000/svg">
<path d="M23.0895 7.33715C21.8215 4.38108 19.6669 2.23121 16.6862 0.959932C15.1963 0.324549 13.6355 0 12.0049 0C10.3746 0 8.8253 0.321484 7.33715 0.959932C4.38108 2.22783 2.21691 4.37632 0.946729 7.33715C0.310245 8.82051 0 10.3746 0 12.0049C0 13.6355 0.310245 15.2025 0.946729 16.6862C2.21691 19.647 4.38135 21.8084 7.33715 23.0766C8.82558 23.715 10.3746 24.0362 12.0049 24.0362C13.6353 24.0362 15.1964 23.7116 16.6859 23.0766C19.6667 21.8053 21.8213 19.6419 23.0895 16.6862C23.7279 15.1977 24.0494 13.6355 24.0494 12.0049C24.0494 10.3746 23.7282 8.82554 23.0895 7.33715ZM21.1699 17.3173C20.226 18.9361 18.9328 20.2204 17.3041 21.1699C15.6853 22.1138 13.9116 22.5899 12.0052 22.5899C10.5721 22.5899 9.20455 22.3139 7.90266 21.7484C6.60081 21.1831 5.47678 20.44 4.53649 19.5C3.59621 18.5597 2.84781 17.4247 2.28819 16.1206C1.73022 14.8213 1.45982 13.4383 1.45982 12.0049C1.45982 10.0983 1.92827 8.33355 2.86691 6.71921C3.80888 5.09898 5.10232 3.81336 6.71949 2.86659C8.33638 1.91986 10.0986 1.44634 12.0049 1.44634C13.9116 1.44634 15.685 1.92265 17.3039 2.86659C18.9325 3.81615 20.2229 5.10173 21.1696 6.71917C22.1164 8.33634 22.5896 10.0983 22.5896 12.0049C22.5896 13.9116 22.1195 15.6883 21.1699 17.3173Z" fill="#F80000"/>
<path d="M12.7679 11.9001V5.08887C12.7679 4.68129 12.4128 4.35254 12.0052 4.35254C11.6239 4.35254 11.282 4.68129 11.282 5.08887V12.0052C11.282 12.0184 11.3084 12.0712 11.3084 12.1105C11.282 12.3472 11.3479 12.5444 11.5056 12.7024L15.4373 16.6338C15.7004 16.8969 16.1868 16.8969 16.4497 16.6338C16.752 16.3314 16.7322 15.8927 16.4497 15.6082L12.7679 11.9001Z" fill="#F80000"/>
</svg>
