<svg width="21" height="21" viewBox="0 0 21 21" fill="none" xmlns="http://www.w3.org/2000/svg">
<path d="M11.6602 10.5L20.7597 19.5996C21.0801 19.92 21.0801 20.4394 20.7597 20.7597C20.4394 21.0801 19.9199 21.0801 19.5996 20.7597L10.5 11.6601L1.4004 20.7597C1.08003 21.0801 0.560611 21.0801 0.240279 20.7597C-0.0800521 20.4393 -0.0800931 19.9199 0.240279 19.5996L9.33986 10.5L0.240279 1.40038C-0.0800931 1.08001 -0.0800931 0.560591 0.240279 0.240259C0.400445 0.0800934 0.610404 3.24249e-05 0.820362 3.24249e-05C1.03032 3.24249e-05 1.24024 0.0800934 1.40045 0.240259L10.5 9.33985L19.5996 0.240259C19.7597 0.0800934 19.9697 3.24249e-05 20.1797 3.24249e-05C20.3896 3.24249e-05 20.5995 0.0800934 20.7597 0.240259C21.0801 0.560633 21.0801 1.08005 20.7597 1.40038L11.6602 10.5Z" fill="black"/>
</svg>
