<svg width="17" height="25" viewBox="0 0 17 25" fill="none" xmlns="http://www.w3.org/2000/svg">
<path d="M8.45577 0C3.79326 0 0 3.79326 0 8.45577C0 10.0311 0.436365 11.5684 1.26221 12.9022L7.97445 23.7189C8.10303 23.9261 8.32955 24.052 8.57317 24.052C8.57505 24.052 8.57688 24.052 8.57876 24.052C8.82449 24.0501 9.05148 23.9203 9.17771 23.7094L15.7189 12.7879C16.4991 11.4824 16.9115 9.98434 16.9115 8.45577C16.9115 3.79326 13.1183 0 8.45577 0ZM14.5094 12.0644L8.5625 21.9937L2.46002 12.1597C1.77261 11.0495 1.3999 9.76877 1.3999 8.45577C1.3999 4.57035 4.57035 1.3999 8.45577 1.3999C12.3412 1.3999 15.5069 4.57035 15.5069 8.45577C15.5069 9.72982 15.1588 10.9778 14.5094 12.0644Z" fill="#F80000"/>
<path d="M8.4564 4.22754C6.12515 4.22754 4.22852 6.12417 4.22852 8.45543C4.22852 10.7718 6.09428 12.6833 8.4564 12.6833C10.8476 12.6833 12.6843 10.7463 12.6843 8.45543C12.6843 6.12417 10.7877 4.22754 8.4564 4.22754ZM8.4564 11.2834C6.8941 11.2834 5.62842 10.0135 5.62842 8.45543C5.62842 6.90125 6.90223 5.62744 8.4564 5.62744C10.0106 5.62744 11.2797 6.90125 11.2797 8.45543C11.2797 9.99076 10.0435 11.2834 8.4564 11.2834Z" fill="#F80000"/>
</svg>
