<svg width="28" height="21" viewBox="0 0 28 21" fill="none" xmlns="http://www.w3.org/2000/svg">
<path d="M23.7907 0H3.31376C1.48587 0 0 1.48587 0 3.31376V17.3089C0 19.1368 1.48587 20.6227 3.31376 20.6227H23.7851C25.613 20.6227 27.0988 19.1368 27.0988 17.3089V3.31937C27.1044 1.49147 25.6186 0 23.7907 0ZM25.5905 17.3089C25.5905 18.3014 24.7831 19.1088 23.7907 19.1088H3.31376C2.32131 19.1088 1.5139 18.3014 1.5139 17.3089V3.31937C1.5139 2.32692 2.32131 1.51951 3.31376 1.51951H23.7851C24.7775 1.51951 25.5849 2.32692 25.5849 3.31937V17.3089H25.5905Z" fill="#F80000"/>
<path d="M17.0905 10.1376L23.7181 4.1941C24.0264 3.91374 24.0545 3.43715 23.7741 3.12315C23.4938 2.81476 23.0172 2.78673 22.7032 3.06708L13.5637 11.2702L11.7807 9.67778C11.7751 9.67217 11.7695 9.66657 11.7695 9.66096C11.7302 9.62171 11.691 9.58807 11.6461 9.55443L4.3906 3.06147C4.0766 2.78112 3.6 2.80916 3.31965 3.12315C3.0393 3.43715 3.06734 3.91374 3.38133 4.1941L10.0873 10.188L3.40936 16.4399C3.10658 16.7258 3.08976 17.2024 3.37572 17.5108C3.52711 17.6678 3.72897 17.7519 3.93082 17.7519C4.11585 17.7519 4.30088 17.6846 4.44667 17.5501L11.2256 11.2085L13.0647 12.8514C13.2105 12.9803 13.3899 13.042 13.5693 13.042C13.7487 13.042 13.9338 12.9747 14.074 12.8458L15.9635 11.1524L22.7032 17.5557C22.849 17.6958 23.0396 17.7631 23.2246 17.7631C23.4265 17.7631 23.6227 17.6846 23.7741 17.5276C24.0601 17.2249 24.0489 16.7427 23.7461 16.4567L17.0905 10.1376Z" fill="#F80000"/>
</svg>
