<svg width="23" height="23" viewBox="0 0 23 23" fill="none" xmlns="http://www.w3.org/2000/svg">
<path d="M17.5745 13.7876C17.1188 13.3131 16.5692 13.0594 15.9866 13.0594C15.4088 13.0594 14.8545 13.3084 14.3801 13.7829L12.8956 15.2626C12.7735 15.1969 12.6513 15.1358 12.5339 15.0747C12.3648 14.9902 12.205 14.9103 12.0688 14.8257C10.6783 13.9426 9.41463 12.7917 8.20264 11.3025C7.61543 10.5603 7.22083 9.93549 6.93427 9.3013C7.31948 8.94898 7.6765 8.58256 8.02413 8.23024C8.15566 8.0987 8.2872 7.96247 8.41873 7.83094C9.40524 6.84443 9.40524 5.56667 8.41873 4.58016L7.13627 3.2977C6.99065 3.15208 6.84032 3.00175 6.69939 2.85143C6.41753 2.56017 6.12158 2.25952 5.81623 1.97766C5.36056 1.52669 4.81563 1.28711 4.24252 1.28711C3.66941 1.28711 3.11508 1.52669 2.64532 1.97766C2.64062 1.98236 2.64062 1.98236 2.63592 1.98706L1.03872 3.59835C0.437421 4.19965 0.0944926 4.93249 0.0193301 5.78276C-0.0934135 7.15448 0.310585 8.43224 0.62063 9.26842C1.38165 11.3213 2.51848 13.2238 4.21433 15.2626C6.2719 17.7195 8.74757 19.6596 11.5756 21.0266C12.656 21.5387 14.0982 22.1447 15.7095 22.248C15.8081 22.2527 15.9115 22.2574 16.0054 22.2574C17.0906 22.2574 18.0019 21.8675 18.716 21.0924C18.7207 21.083 18.7301 21.0783 18.7348 21.0689C18.9791 20.773 19.2609 20.5052 19.5569 20.2186C19.7589 20.026 19.9656 19.824 20.1676 19.6126C20.6326 19.1288 20.8769 18.5651 20.8769 17.9873C20.8769 17.4048 20.6279 16.8457 20.1535 16.376L17.5745 13.7876ZM19.2562 18.7342C19.2515 18.7342 19.2515 18.7389 19.2562 18.7342C19.073 18.9315 18.8851 19.11 18.6831 19.3073C18.3778 19.5986 18.0677 19.9039 17.7765 20.2468C17.302 20.7542 16.743 20.9938 16.0101 20.9938C15.9397 20.9938 15.8645 20.9938 15.794 20.9891C14.3988 20.8998 13.1023 20.3549 12.1299 19.8898C9.47101 18.6027 7.13627 16.7753 5.19614 14.4593C3.59424 12.5286 2.52318 10.7435 1.81383 8.82684C1.37695 7.65712 1.21723 6.74578 1.2877 5.88611C1.33467 5.33649 1.54607 4.88081 1.93597 4.49091L3.53787 2.88901C3.76806 2.67292 4.01233 2.55548 4.25191 2.55548C4.54787 2.55548 4.78745 2.73399 4.93777 2.88431C4.94247 2.88901 4.94717 2.89371 4.95186 2.8984C5.23842 3.16617 5.51088 3.44333 5.79744 3.73928C5.94307 3.88961 6.09339 4.03993 6.24372 4.19496L7.52618 5.47742C8.02413 5.97537 8.02413 6.43574 7.52618 6.93369C7.38995 7.06992 7.25841 7.20615 7.12218 7.33768C6.72758 7.74168 6.35177 8.1175 5.94307 8.48391C5.93367 8.49331 5.92428 8.498 5.91958 8.5074C5.51558 8.9114 5.59075 9.306 5.6753 9.57377C5.68 9.58786 5.6847 9.60195 5.6894 9.61605C6.02293 10.424 6.49269 11.1851 7.20674 12.0917L7.21144 12.0964C8.50799 13.6936 9.875 14.9385 11.383 15.8921C11.5756 16.0142 11.7729 16.1129 11.9608 16.2069C12.1299 16.2914 12.2896 16.3713 12.4258 16.4558C12.4446 16.4652 12.4634 16.4793 12.4822 16.4887C12.6419 16.5686 12.7922 16.6062 12.9473 16.6062C13.3372 16.6062 13.5815 16.3619 13.6613 16.282L15.2679 14.6754C15.4276 14.5157 15.6813 14.3231 15.9773 14.3231C16.2685 14.3231 16.5081 14.5063 16.6537 14.666C16.6584 14.6707 16.6584 14.6707 16.6631 14.6754L19.2515 17.2638C19.7354 17.743 19.7354 18.2362 19.2562 18.7342Z" fill="#F80000"/>
<path d="M12.0123 5.2942C13.2431 5.5009 14.3611 6.0834 15.2537 6.97596C16.1462 7.86851 16.7241 8.98655 16.9354 10.2173C16.9871 10.5274 17.2549 10.7435 17.5602 10.7435C17.5978 10.7435 17.6307 10.7388 17.6683 10.7341C18.0159 10.6777 18.2461 10.3489 18.1897 10.0012C17.936 8.51209 17.2314 7.15447 16.1556 6.07871C15.0799 5.00294 13.7223 4.2983 12.2331 4.04462C11.8855 3.98825 11.5613 4.21844 11.5003 4.56136C11.4392 4.90429 11.6647 5.23783 12.0123 5.2942Z" fill="#F80000"/>
<path d="M22.2159 9.81836C21.7978 7.36619 20.6421 5.13481 18.8664 3.35909C17.0907 1.58338 14.8593 0.427759 12.4072 0.00966846C12.0642 -0.051401 11.7401 0.183482 11.679 0.52641C11.6226 0.874036 11.8528 1.19817 12.2005 1.25924C14.3896 1.63036 16.3861 2.66854 17.9739 4.25165C19.5617 5.83945 20.5952 7.83596 20.9663 10.0251C21.018 10.3351 21.2857 10.5512 21.5911 10.5512C21.6286 10.5512 21.6615 10.5465 21.6991 10.5418C22.042 10.4901 22.2769 10.1613 22.2159 9.81836Z" fill="#F80000"/>
</svg>
