<svg width="26" height="26" viewBox="0 0 26 26" fill="none" xmlns="http://www.w3.org/2000/svg">
<path d="M15.7257 6.96969C18.1436 9.38757 18.1436 13.3077 15.7257 15.7256C13.3079 18.1435 9.38769 18.1435 6.9698 15.7256C4.55192 13.3077 4.55192 9.38757 6.9698 6.96969C9.38769 4.5518 13.3079 4.5518 15.7257 6.96969ZM17.0597 16.1576C19.5358 13.2239 19.3918 8.83183 16.6277 6.0677C13.7117 3.15167 8.98386 3.15167 6.06782 6.0677C3.15178 8.98374 3.15178 13.7116 6.06782 16.6276C8.83194 19.3917 13.224 19.5357 16.1577 17.0596L19.5199 20.4218C19.769 20.6709 20.1728 20.6709 20.4219 20.4218C20.671 20.1727 20.671 19.7689 20.4219 19.5198L17.0597 16.1576Z" fill="#ED1C24" stroke="#ED1C24" stroke-width="0.3"/>
</svg>
